<svg width="160" height="160" viewBox="0 0 160 160" fill="none" xmlns="http://www.w3.org/2000/svg">
<circle cx="80" cy="80" r="80" fill="#ECEFD8"/>
<path d="M56.2073 58.5625C54.4984 58.5625 52.9562 56.977 52.9562 55.2235C52.9562 51.181 62.8832 48.1885 74.1788 48.1885C75.2034 48.1885 75.8877 48.1885 75.8877 47.3135C75.8877 45.7315 72.4664 45.2065 72.4664 42.571C72.4664 39.757 75.7175 38 79.8265 38C83.9356 38 87.1902 39.757 87.1902 42.571C87.1902 45.2065 83.7654 45.5565 83.7654 47.3135C83.7654 47.842 84.2794 48.192 85.4743 48.192C96.7698 48.192 106.871 51.0025 106.871 55.2235C106.875 55.658 106.794 56.089 106.632 56.4919C106.471 56.8948 106.232 57.2617 105.93 57.5715C105.628 57.8813 105.268 58.128 104.871 58.2975C104.473 58.4669 104.047 58.5558 103.616 58.559H56.2108L56.2073 58.5625ZM107.378 74.5505C111.487 77.186 113.025 81.932 112.345 86.328L107.551 112.858C106.523 118.14 102.07 122 96.7629 122H63.2236C57.9232 122 53.4703 118.136 52.4421 112.861L47.6488 86.328C47.2893 84.0996 47.5845 81.8139 48.4979 79.7524C49.4112 77.6909 50.903 75.9435 52.7895 74.7255C55.1861 72.972 55.6932 69.983 52.7895 68.9295C48.6769 67.3475 49.5314 62.2515 53.6404 62.2515H78.6247C82.5601 62.2515 87.3569 65.237 87.3569 74.904C87.3569 84.571 82.904 83.689 82.904 90.542C82.904 93.531 85.3006 96.695 88.2079 97.0485C93.1749 97.5735 96.0821 95.6415 96.0821 88.6135C96.0821 81.4035 91.9765 78.068 91.9765 72.0935C91.9765 64.887 96.4225 62.073 99.3332 62.073H106.523C110.629 62.073 111.49 67.1725 107.378 68.7545C104.47 69.9795 104.981 72.972 107.378 74.5505Z" fill="#599450"/>
</svg>
