<svg width="160" height="160" viewBox="0 0 160 160" fill="none" xmlns="http://www.w3.org/2000/svg">
<circle cx="80" cy="80" r="80" fill="#ECEFD8"/>
<path d="M67.1428 105.517C71.3857 101.66 73.5714 99.6798 73.5714 97.1727C73.5714 95.2441 71.9643 93.7141 70.0357 93.7141C68.93 93.7141 67.8757 94.177 67.1428 94.9998C66.41 94.177 65.3557 93.7141 64.1728 93.7141C62.2443 93.7141 60.7143 95.3213 60.7143 97.2498C60.7143 99.6798 62.9 101.66 67.1428 105.517ZM66.0886 106.571C62.2314 102.328 60.2514 100.143 57.7443 100.143C55.8157 100.143 54.2857 101.75 54.2857 103.678C54.2857 104.784 54.7486 105.838 55.5714 106.571C54.7486 107.304 54.2857 108.358 54.2857 109.541C54.2857 111.47 55.8928 113 57.8214 113C60.2514 113 62.2314 110.814 66.0886 106.571ZM68.21 106.571C72.0543 110.814 74.0343 113 76.5414 113C78.47 113 80 111.393 80 109.464C80 108.358 79.5371 107.304 78.7143 106.571C79.5371 105.838 80 104.784 80 103.601C80 101.673 78.3929 100.143 76.4643 100.143C74.0343 100.143 72.0543 102.328 68.21 106.571ZM67.1428 107.626C62.9 111.483 60.7143 113.463 60.7143 115.97C60.7143 117.898 62.3214 119.428 64.25 119.428C65.3557 119.428 66.41 118.966 67.1428 118.143C67.8757 118.966 68.93 119.428 70.1129 119.428C72.0414 119.428 73.5714 117.821 73.5714 115.893C73.5714 113.463 71.3857 111.483 67.1428 107.626Z" fill="#F1C550"/>
<path fill-rule="evenodd" clip-rule="evenodd" d="M79.6977 28C74.5338 28 70.4102 30.0542 70.4102 33.5198C70.4102 35.345 71.703 36.2539 72.8398 37.0445C73.7165 37.6653 74.4967 38.2121 74.4967 39.0618C74.4967 40.5914 69.0133 40.8574 62.5938 41.1604C53.5144 41.6038 42.5477 42.121 42.5477 46.4512C42.5477 47.4311 42.9391 48.3708 43.6358 49.0637C44.3325 49.7566 45.2774 50.1458 46.2627 50.1458H113.133C114.118 50.1458 115.063 49.7566 115.76 49.0637C116.456 48.3708 116.848 47.4311 116.848 46.4512C116.848 42.121 105.881 41.5964 96.8015 41.1604C90.382 40.8574 84.8986 40.5914 84.8986 39.0618C84.8986 38.2121 85.6788 37.6579 86.5555 37.0445C87.6923 36.2539 88.9851 35.345 88.9851 33.5198C88.9851 30.0542 84.8615 28 79.6977 28ZM45.4825 73.2228C43.1402 74.7353 41.2851 76.8865 40.1388 79.4193C38.9926 81.9522 38.6036 84.7596 39.0184 87.5063L45.0367 120.175C45.631 123.327 47.3114 126.176 49.7888 128.23C52.2663 130.284 55.386 131.415 58.6113 131.429H100.784C107.456 131.429 113.051 126.67 114.344 120.175L120.377 87.5137C121.231 82.0973 119.292 76.2524 114.136 73.0085C111.119 71.0577 110.473 67.3778 114.136 65.8704C119.277 63.9196 118.282 57.5352 113.133 57.5352H46.2627C41.0988 57.5352 40.3113 64.1339 45.4825 66.0847C49.1307 67.3778 48.4843 71.0577 45.4825 73.2228ZM84.8986 74.1612C84.8986 70.969 84.0516 67.7029 82.7142 64.9245H54.5174C55.1966 66.4443 55.4973 68.1046 55.3941 69.7645C55.1415 73.9765 52.5485 77.2573 49.8291 79.2081L49.6433 79.3411L49.4502 79.4667C48.3482 80.2007 47.4737 81.2257 46.9251 82.4266C46.3765 83.6274 46.1754 84.9567 46.3444 86.2649L52.3404 118.778C52.6078 120.242 53.3791 121.568 54.5219 122.528C55.6648 123.488 57.108 124.022 58.6039 124.039H100.777C103.749 124.039 106.394 121.933 107.04 118.785L113.036 86.2723C113.489 83.2649 112.352 80.6343 110.153 79.2525L110.071 79.2007C107.151 77.3091 104.462 73.9986 104.202 69.7128C104.097 68.0724 104.387 66.4309 105.049 64.9245H91.2513C90.9686 66.1357 90.8314 67.3759 90.8426 68.6192C90.8426 72.1217 92.455 75.0553 94.1416 78.1293C95.9916 81.4988 97.9309 85.0309 97.9309 89.6788C97.9309 96.477 94.5502 100.704 88.0341 100.704C84.3934 100.704 80.2772 97.8884 80.2772 92.6937C80.2772 89.701 81.3025 87.2108 82.3799 84.5802C83.5984 81.6096 84.9061 78.447 84.9061 74.1612H84.8986Z" fill="#599450"/>
</svg>
