<svg width="161" height="160" viewBox="0 0 161 160" fill="none" xmlns="http://www.w3.org/2000/svg">
<circle cx="80.5" cy="80" r="80" fill="#ECEFD8"/>
<path fill-rule="evenodd" clip-rule="evenodd" d="M80.1977 28C75.0338 28 70.9102 30.0542 70.9102 33.5198C70.9102 35.345 72.203 36.2539 73.3398 37.0445C74.2165 37.6653 74.9967 38.2121 74.9967 39.0618C74.9967 40.5914 69.5133 40.8574 63.0938 41.1604C54.0144 41.6038 43.0477 42.121 43.0477 46.4512C43.0477 47.4311 43.4391 48.3708 44.1358 49.0637C44.8325 49.7566 45.7774 50.1458 46.7627 50.1458H113.633C114.618 50.1458 115.563 49.7566 116.26 49.0637C116.956 48.3708 117.348 47.4311 117.348 46.4512C117.348 42.121 106.381 41.5964 97.3015 41.1604C90.882 40.8574 85.3986 40.5914 85.3986 39.0618C85.3986 38.2121 86.1788 37.6579 87.0555 37.0445C88.1923 36.2539 89.4851 35.345 89.4851 33.5198C89.4851 30.0542 85.3615 28 80.1977 28ZM45.9825 73.2228C43.6402 74.7353 41.7851 76.8865 40.6388 79.4193C39.4926 81.9522 39.1036 84.7596 39.5184 87.5063L45.5367 120.175C46.131 123.327 47.8114 126.176 50.2888 128.23C52.7663 130.284 55.886 131.415 59.1113 131.429H101.284C107.956 131.429 113.551 126.67 114.844 120.175L120.877 87.5137C121.731 82.0973 119.792 76.2524 114.636 73.0085C111.619 71.0577 110.973 67.3778 114.636 65.8704C119.777 63.9196 118.782 57.5352 113.633 57.5352H46.7627C41.5988 57.5352 40.8113 64.1339 45.9825 66.0847C49.6307 67.3778 48.9843 71.0577 45.9825 73.2228ZM85.3986 74.1612C85.3986 70.969 84.5516 67.7029 83.2142 64.9245H55.0174C55.6966 66.4443 55.9973 68.1046 55.8941 69.7645C55.6415 73.9765 53.0485 77.2573 50.3291 79.2081L50.1433 79.3411L49.9502 79.4667C48.8482 80.2007 47.9737 81.2257 47.4251 82.4266C46.8765 83.6274 46.6754 84.9567 46.8444 86.2649L52.8404 118.778C53.1078 120.242 53.8791 121.568 55.0219 122.528C56.1648 123.488 57.608 124.022 59.1039 124.039H101.277C104.249 124.039 106.894 121.933 107.54 118.785L113.536 86.2723C113.989 83.2649 112.852 80.6343 110.653 79.2525L110.571 79.2007C107.651 77.3091 104.962 73.9986 104.702 69.7128C104.597 68.0724 104.887 66.4309 105.549 64.9245H91.7513C91.4686 66.1357 91.3314 67.3759 91.3426 68.6192C91.3426 72.1217 92.955 75.0553 94.6416 78.1293C96.4916 81.4988 98.4309 85.0309 98.4309 89.6788C98.4309 96.477 95.0502 100.704 88.5341 100.704C84.8934 100.704 80.7772 97.8884 80.7772 92.6937C80.7772 89.701 81.8025 87.2108 82.8799 84.5802C84.0984 81.6096 85.4061 78.447 85.4061 74.1612H85.3986Z" fill="#599450"/>
<path d="M64.5316 106.401C64.6529 106.311 64.7983 106.238 64.9597 106.188C65.121 106.137 65.2951 106.109 65.4719 106.105C65.6488 106.102 65.8249 106.122 65.9903 106.166C66.1557 106.21 66.3071 106.276 66.4359 106.361C72.6346 110.438 78.8544 112.919 86.1736 114.184C87.1612 112.303 87.2487 110.232 86.3959 108.212C85.2644 105.532 82.6294 103.197 78.7778 101.46C75.3396 99.9088 71.9031 99.5049 68.5785 99.1145C64.3843 98.6219 60.4224 98.1563 56.6416 95.3608C56.2206 95.0516 55.6473 94.9276 55.0993 95.0281C54.4729 95.1457 54.0528 95.4914 53.8516 96.0628C53.3802 97.4002 53.6832 101.149 55.0092 105.106C57.1383 111.463 60.5361 114.68 63.012 116.26C66.2111 118.299 70.3885 119.428 74.5398 119.428C75.3223 119.429 76.1038 119.389 76.8777 119.309C80.3891 118.937 83.3121 117.705 84.9597 115.913C77.4257 114.545 70.9896 111.942 64.5863 107.732C64.4573 107.648 64.3535 107.546 64.2809 107.433C64.2083 107.32 64.1683 107.198 64.1633 107.075C64.1582 106.951 64.1881 106.828 64.2513 106.712C64.3145 106.596 64.4098 106.491 64.5316 106.401Z" fill="#F1C550"/>
<path d="M90.2063 114.631C88.8139 114.47 87.4653 114.268 86.1522 114.024C85.8823 114.577 85.5464 115.111 85.1486 115.619C85.0882 115.696 85.0245 115.773 84.9592 115.849C86.5562 116.159 88.1733 116.408 89.8042 116.594C89.9778 116.617 90.1556 116.613 90.3274 116.584C90.4992 116.555 90.6615 116.5 90.8047 116.423C90.9479 116.346 91.0691 116.248 91.1614 116.135C91.2536 116.023 91.3149 115.897 91.3417 115.767C91.3685 115.636 91.3603 115.503 91.3176 115.374C91.2748 115.246 91.1983 115.126 91.0927 115.02C90.987 114.914 90.8542 114.825 90.7022 114.758C90.5501 114.692 90.3818 114.648 90.2071 114.631H90.2063Z" fill="#F1C550"/>
</svg>
