<svg width="160" height="160" viewBox="0 0 160 160" fill="none" xmlns="http://www.w3.org/2000/svg">
<circle cx="80" cy="80" r="80" fill="#ECEFD8"/>
<path d="M107.981 110.002H52.0207C51.4848 110.002 50.9708 109.789 50.5918 109.41C50.2129 109.031 50 108.517 50 107.981V52.0207C50 51.4848 50.2129 50.9708 50.5918 50.5918C50.9708 50.2129 51.4848 50 52.0207 50H107.979C108.515 50 109.029 50.2129 109.408 50.5918C109.787 50.9708 110 51.4848 110 52.0207V107.979C110 108.245 109.948 108.507 109.847 108.753C109.746 108.998 109.597 109.221 109.41 109.409C109.222 109.597 109 109.746 108.754 109.847C108.509 109.949 108.247 110.002 107.981 110.002ZM54.0414 105.961H105.959V54.0414H54.0414V105.961Z" fill="#599450"/>
<path d="M80.2698 71.4206C80.8458 71.419 81.3977 71.1845 81.805 70.7683C82.2123 70.3521 82.4418 69.788 82.4433 69.1994V66.9702C82.4433 65.7543 81.4675 64.749 80.2698 64.749C79.0721 64.749 78.0923 65.7563 78.0923 66.9702V69.1994C78.0923 70.4214 79.0721 71.4206 80.2698 71.4206Z" fill="#599450"/>
<path d="M75.7019 80.2559H77.9464V92.9653C77.9464 94.1982 78.959 95.2064 80.1969 95.2064C81.4348 95.2064 82.4434 94.1982 82.4434 92.9653V78.0128C82.4418 77.4189 82.2046 76.8498 81.7837 76.4299C81.3627 76.01 80.7922 75.7733 80.1969 75.7717H75.7019C74.4639 75.7717 73.4513 76.7799 73.4513 78.0128C73.4513 79.2457 74.4639 80.2559 75.7019 80.2559Z" fill="#599450"/>
</svg>
