<svg width="161" height="160" viewBox="0 0 161 160" fill="none" xmlns="http://www.w3.org/2000/svg">
<circle cx="80.5" cy="80" r="80" fill="#ECEFD8"/>
<path fill-rule="evenodd" clip-rule="evenodd" d="M80.1977 28C75.0338 28 70.9102 30.0542 70.9102 33.5198C70.9102 35.345 72.203 36.2539 73.3398 37.0445C74.2165 37.6653 74.9967 38.2121 74.9967 39.0618C74.9967 40.5914 69.5133 40.8574 63.0938 41.1604C54.0144 41.6038 43.0477 42.121 43.0477 46.4512C43.0477 47.4311 43.4391 48.3708 44.1358 49.0637C44.8325 49.7566 45.7774 50.1458 46.7627 50.1458H113.633C114.618 50.1458 115.563 49.7566 116.26 49.0637C116.956 48.3708 117.348 47.4311 117.348 46.4512C117.348 42.121 106.381 41.5964 97.3015 41.1604C90.882 40.8574 85.3986 40.5914 85.3986 39.0618C85.3986 38.2121 86.1788 37.6579 87.0555 37.0445C88.1923 36.2539 89.4851 35.345 89.4851 33.5198C89.4851 30.0542 85.3615 28 80.1977 28ZM45.9825 73.2228C43.6402 74.7353 41.7851 76.8865 40.6388 79.4193C39.4926 81.9522 39.1036 84.7596 39.5184 87.5063L45.5367 120.175C46.131 123.327 47.8114 126.176 50.2888 128.23C52.7663 130.284 55.886 131.415 59.1113 131.429H101.284C107.956 131.429 113.551 126.67 114.844 120.175L120.877 87.5137C121.731 82.0973 119.792 76.2524 114.636 73.0085C111.619 71.0577 110.973 67.3778 114.636 65.8704C119.777 63.9196 118.782 57.5352 113.633 57.5352H46.7627C41.5988 57.5352 40.8113 64.1339 45.9825 66.0847C49.6307 67.3778 48.9843 71.0577 45.9825 73.2228ZM85.3986 74.1612C85.3986 70.969 84.5516 67.7029 83.2142 64.9245H55.0174C55.6966 66.4443 55.9973 68.1046 55.8941 69.7645C55.6415 73.9765 53.0485 77.2573 50.3291 79.2081L50.1433 79.3411L49.9502 79.4667C48.8482 80.2007 47.9737 81.2257 47.4251 82.4266C46.8765 83.6274 46.6754 84.9567 46.8444 86.2649L52.8404 118.778C53.1078 120.242 53.8791 121.568 55.0219 122.528C56.1648 123.488 57.608 124.022 59.1039 124.039H101.277C104.249 124.039 106.894 121.933 107.54 118.785L113.536 86.2723C113.989 83.2649 112.852 80.6343 110.653 79.2525L110.571 79.2007C107.651 77.3091 104.962 73.9986 104.702 69.7128C104.597 68.0724 104.887 66.4309 105.549 64.9245H91.7513C91.4686 66.1357 91.3314 67.3759 91.3426 68.6192C91.3426 72.1217 92.955 75.0553 94.6416 78.1293C96.4916 81.4988 98.4309 85.0309 98.4309 89.6788C98.4309 96.477 95.0502 100.704 88.5341 100.704C84.8934 100.704 80.7772 97.8884 80.7772 92.6937C80.7772 89.701 81.8025 87.2108 82.8799 84.5802C84.0984 81.6096 85.4061 78.447 85.4061 74.1612H85.3986Z" fill="#599450"/>
<path d="M76.4783 111.188C77.1159 109.479 78.1426 107.942 79.4771 106.699C79.9223 106.277 79.524 105.526 78.9383 105.702C75.0491 106.851 72.2026 110.45 72.2143 114.716C73.3271 113.216 74.7914 112.009 76.4783 111.188ZM71.5349 108.644C70.8428 106.828 69.6382 105.252 68.0674 104.108C67.5754 103.756 66.9429 104.331 67.224 104.87C68.1611 106.652 68.7 108.68 68.7 110.825C68.7 111.071 68.6649 111.305 68.6531 111.54C69.1569 111.821 69.6254 112.149 70.0823 112.501C70.3329 111.139 70.8248 109.833 71.5349 108.644ZM72.2143 121.714H61.6714C61.0271 121.714 60.5 121.187 60.5 120.542C60.5 119.897 61.0271 119.37 61.6714 119.37H67.2357C66.9071 118.111 66.3209 116.934 65.5144 115.913C64.7079 114.892 63.6985 114.049 62.55 113.439C62.4564 113.389 62.3783 113.315 62.3245 113.224C62.2707 113.133 62.2433 113.029 62.2454 112.923C62.2454 112.606 62.5031 112.348 62.8194 112.337H62.8429C68.0206 112.337 72.2143 116.533 72.2143 121.714ZM81.8903 113.439C80.7404 114.047 79.7299 114.889 78.9232 115.91C78.1164 116.932 77.5311 118.11 77.2046 119.37H82.7571C83.4014 119.37 83.9286 119.897 83.9286 120.542C83.9286 121.187 83.4014 121.714 82.7571 121.714H74.5571C74.5571 120.917 74.4751 120.132 74.3229 119.37C74.1471 118.526 73.8777 117.705 73.538 116.943C74.3623 115.541 75.5385 114.378 76.95 113.57C78.3616 112.762 79.9595 112.337 81.5857 112.337H81.6091C81.7624 112.34 81.9084 112.403 82.0158 112.513C82.1231 112.622 82.1832 112.769 82.1831 112.923C82.1949 113.146 82.066 113.333 81.8903 113.439Z" fill="#F1C550"/>
<path d="M73.2132 97.7297C72.7819 97.485 72.3261 97.2883 71.8538 97.1429C72.3261 96.9974 72.7819 96.8006 73.2132 96.5559C74.198 95.975 74.9166 95.0181 75.2109 93.8958C75.5053 92.7735 75.3512 91.5777 74.7826 90.5714C74.214 89.5652 73.2775 88.8309 72.1791 88.5302C71.0807 88.2295 69.9103 88.3869 68.9255 88.9679C68.5025 89.2272 68.1078 89.5321 67.7483 89.8773C67.8612 89.3866 67.9223 88.8849 67.9305 88.381C67.9305 87.2191 67.4788 86.1047 66.6747 85.2832C65.8706 84.4616 64.78 84 63.6429 84C62.5057 84 61.4151 84.4616 60.611 85.2832C59.8069 86.1047 59.3552 87.2191 59.3552 88.381C59.3635 88.8849 59.4246 89.3865 59.5374 89.8772C59.1779 89.532 58.7833 89.2271 58.3602 88.9678C57.3754 88.3868 56.205 88.2294 55.1066 88.5301C54.0081 88.8309 53.0716 89.5652 52.503 90.5714C51.9344 91.5777 51.7804 92.7735 52.0747 93.8959C52.3691 95.0182 53.0877 95.9751 54.0725 96.5561C54.5039 96.8007 54.9596 96.9974 55.432 97.1429C54.9596 97.2884 54.5039 97.4851 54.0725 97.7298C53.0877 98.3107 52.3691 99.2676 52.0748 100.39C51.7805 101.512 51.9346 102.708 52.5031 103.714C53.0717 104.721 54.0082 105.455 55.1066 105.755C56.2051 106.056 57.3754 105.899 58.3602 105.318C58.7833 105.059 59.1779 104.754 59.5374 104.408C59.4246 104.899 59.3635 105.401 59.3552 105.905C59.3552 107.067 59.8069 108.181 60.611 109.003C61.4151 109.824 62.5057 110.286 63.6429 110.286C64.78 110.286 65.8706 109.824 66.6747 109.003C67.4788 108.181 67.9305 107.067 67.9305 105.905C67.9223 105.401 67.8612 104.899 67.7483 104.409C68.1078 104.754 68.5025 105.059 68.9255 105.318C69.9104 105.899 71.0807 106.056 72.1792 105.756C73.2776 105.455 74.2141 104.721 74.7827 103.714C75.3513 102.708 75.5054 101.512 75.211 100.39C74.9167 99.2675 74.198 98.3106 73.2132 97.7297ZM61.2608 97.1429C61.2608 96.6615 61.4005 96.1909 61.6623 95.7907C61.924 95.3904 62.296 95.0785 62.7313 94.8943C63.1666 94.71 63.6455 94.6618 64.1076 94.7558C64.5697 94.8497 64.9941 95.0815 65.3272 95.4219C65.6604 95.7622 65.8872 96.1959 65.9791 96.668C66.0711 97.1402 66.0239 97.6295 65.8436 98.0743C65.6633 98.519 65.358 98.8991 64.9663 99.1665C64.5745 99.434 64.114 99.5767 63.6429 99.5767C63.0113 99.576 62.4059 99.3193 61.9593 98.863C61.5128 98.4068 61.2616 97.7881 61.2608 97.1429ZM69.8783 90.6542C70.1493 90.4918 70.4491 90.3859 70.7604 90.3424C71.0716 90.2989 71.3882 90.3188 71.6919 90.4008C71.9956 90.4829 72.2804 90.6255 72.53 90.8204C72.7795 91.0154 72.9889 91.2589 73.1459 91.5369C73.303 91.8148 73.4047 92.1218 73.4452 92.4401C73.4857 92.7584 73.4642 93.0818 73.3819 93.3915C73.2996 93.7013 73.1581 93.9914 72.9656 94.245C72.7732 94.4987 72.5335 94.711 72.2604 94.8696C71.4518 95.3467 69.8732 95.7232 67.767 95.9478C67.5725 95.2502 67.2116 94.6129 66.7165 94.093C67.9604 92.3406 69.0695 91.1312 69.8783 90.6542ZM63.6429 85.9471C64.2744 85.9478 64.8799 86.2045 65.3264 86.6608C65.773 87.117 66.0242 87.7357 66.0249 88.381C66.0249 89.3348 65.5549 90.9197 64.6924 92.8952C64.0036 92.7175 63.2823 92.7175 62.5935 92.8952C61.7308 90.9197 61.2608 89.3348 61.2608 88.381C61.2616 87.7357 61.5128 87.117 61.9593 86.6608C62.4059 86.2045 63.0113 85.9478 63.6429 85.9471ZM54.1535 91.545C54.4699 90.9865 54.9902 90.5791 55.6002 90.4121C56.2102 90.2451 56.8601 90.3321 57.4074 90.6541C58.2163 91.1311 59.3253 92.3406 60.5691 94.0929C60.074 94.6128 59.7131 95.2502 59.5186 95.9478C57.4125 95.7232 55.8339 95.3467 55.0254 94.8698C54.4788 94.5464 54.0801 94.0148 53.9167 93.3915C53.7532 92.7683 53.8384 92.1042 54.1535 91.545ZM57.4074 103.632C56.8603 103.954 56.2105 104.041 55.6006 103.873C54.9908 103.706 54.4709 103.298 54.1552 102.74C53.8395 102.181 53.7538 101.517 53.917 100.894C54.0801 100.271 54.4788 99.739 55.0254 99.416C55.8339 98.9389 57.4125 98.5625 59.5187 98.338C59.7132 99.0356 60.0742 99.6729 60.5692 100.193C59.3253 101.945 58.2163 103.154 57.4074 103.632ZM63.6429 108.339C63.0113 108.338 62.4059 108.081 61.9593 107.625C61.5128 107.169 61.2616 106.55 61.2608 105.905C61.2608 104.951 61.7308 103.366 62.5933 101.391C63.2822 101.568 64.0034 101.568 64.6923 101.391C65.5549 103.366 66.0249 104.951 66.0249 105.905C66.0242 106.55 65.773 107.169 65.3264 107.625C64.8799 108.081 64.2744 108.338 63.6429 108.339ZM73.1322 102.741C72.8159 103.299 72.2956 103.707 71.6856 103.874C71.0756 104.041 70.4256 103.954 69.8783 103.632C69.0694 103.155 67.9604 101.945 66.7167 100.193C67.2117 99.6729 67.5727 99.0355 67.7671 98.3379C69.8732 98.5625 71.4518 98.939 72.2604 99.416C72.8069 99.7393 73.2056 100.271 73.3691 100.894C73.5325 101.517 73.4473 102.182 73.1322 102.741Z" fill="#F1C550"/>
</svg>
