<svg width="161" height="161" viewBox="0 0 161 161" fill="none" xmlns="http://www.w3.org/2000/svg">
<circle cx="80.5" cy="80.5" r="80" fill="#ECEFD8"/>
<path d="M61.9621 106.75C62.3787 102.124 66.2661 98.5 71 98.5C75.7339 98.5 79.6213 102.124 80.0379 106.75H80.075C82.0442 106.75 83.9328 107.532 85.3253 108.925C86.7177 110.317 87.5 112.206 87.5 114.175C87.5 116.144 86.7177 118.033 85.3253 119.425C83.9328 120.818 82.0442 121.6 80.075 121.6H61.925C59.9558 121.6 58.0672 120.818 56.6747 119.425C55.2823 118.033 54.5 116.144 54.5 114.175C54.5 112.206 55.2823 110.317 56.6747 108.925C58.0672 107.532 59.9558 106.75 61.925 106.75H61.9621Z" fill="#F1C550" stroke="#ECEFD8" stroke-width="3" stroke-linecap="round" stroke-linejoin="round"/>
<path d="M71 118.3L75.125 114.175L71 118.3Z" fill="#F1C550"/>
<path d="M71 118.3L75.125 114.175" stroke="#ECEFD8" stroke-width="3" stroke-linecap="round" stroke-linejoin="round"/>
<path d="M71 115.825L66.05 110.875L71 115.825Z" fill="#F1C550"/>
<path d="M71 115.825L66.05 110.875" stroke="#ECEFD8" stroke-width="3" stroke-linecap="round" stroke-linejoin="round"/>
<path d="M71 121.6L71 110.05L71 121.6Z" fill="#F1C550"/>
<path d="M71 121.6L71 110.05" stroke="#ECEFD8" stroke-width="3" stroke-linecap="round" stroke-linejoin="round"/>
<path fill-rule="evenodd" clip-rule="evenodd" d="M80.1977 28.5C75.0338 28.5 70.9102 30.5542 70.9102 34.0198C70.9102 35.845 72.203 36.7539 73.3398 37.5445C74.2165 38.1653 74.9967 38.7121 74.9967 39.5618C74.9967 41.0914 69.5133 41.3574 63.0938 41.6604C54.0144 42.1038 43.0477 42.621 43.0477 46.9512C43.0477 47.9311 43.4391 48.8708 44.1358 49.5637C44.8325 50.2566 45.7774 50.6458 46.7627 50.6458H113.633C114.618 50.6458 115.563 50.2566 116.26 49.5637C116.956 48.8708 117.348 47.9311 117.348 46.9512C117.348 42.621 106.381 42.0964 97.3015 41.6604C90.882 41.3574 85.3986 41.0914 85.3986 39.5618C85.3986 38.7121 86.1788 38.1579 87.0555 37.5445C88.1923 36.7539 89.4851 35.845 89.4851 34.0198C89.4851 30.5542 85.3615 28.5 80.1977 28.5ZM45.9825 73.7228C43.6402 75.2353 41.7851 77.3865 40.6388 79.9193C39.4926 82.4522 39.1036 85.2596 39.5184 88.0063L45.5367 120.675C46.131 123.827 47.8114 126.676 50.2888 128.73C52.7663 130.784 55.886 131.915 59.1113 131.929H101.284C107.956 131.929 113.551 127.17 114.844 120.675L120.877 88.0137C121.731 82.5973 119.792 76.7524 114.636 73.5085C111.619 71.5577 110.973 67.8778 114.636 66.3704C119.777 64.4196 118.782 58.0352 113.633 58.0352H46.7627C41.5988 58.0352 40.8113 64.6339 45.9825 66.5847C49.6307 67.8778 48.9843 71.5577 45.9825 73.7228ZM85.3986 74.6612C85.3986 71.469 84.5516 68.2029 83.2142 65.4245H55.0174C55.6966 66.9443 55.9973 68.6046 55.8941 70.2645C55.6415 74.4765 53.0485 77.7573 50.3291 79.7081L50.1433 79.8411L49.9502 79.9667C48.8482 80.7007 47.9737 81.7257 47.4251 82.9266C46.8765 84.1274 46.6754 85.4567 46.8444 86.7649L52.8404 119.278C53.1078 120.742 53.8791 122.068 55.0219 123.028C56.1648 123.988 57.608 124.522 59.1039 124.539H101.277C104.249 124.539 106.894 122.433 107.54 119.285L113.536 86.7723C113.989 83.7649 112.852 81.1343 110.653 79.7525L110.571 79.7007C107.651 77.8091 104.962 74.4986 104.702 70.2128C104.597 68.5724 104.887 66.9309 105.549 65.4245H91.7513C91.4686 66.6357 91.3314 67.8759 91.3426 69.1192C91.3426 72.6217 92.955 75.5553 94.6416 78.6293C96.4916 81.9988 98.4309 85.5309 98.4309 90.1788C98.4309 96.977 95.0502 101.204 88.5341 101.204C84.8934 101.204 80.7772 98.3884 80.7772 93.1937C80.7772 90.201 81.8025 87.7108 82.8799 85.0802C84.0984 82.1096 85.4061 78.947 85.4061 74.6612H85.3986Z" fill="#599450"/>
</svg>
