<svg width="120" height="120" viewBox="0 0 120 120" fill="none" xmlns="http://www.w3.org/2000/svg">
<path d="M51.0391 41.793C52.1523 41.9102 52.709 42.0762 52.709 42.291C52.709 42.4863 52.7773 42.584 52.9141 42.584L53.002 42.6719L52.6797 42.9355V43.0527H52.7676C52.8652 42.9355 52.9434 42.877 53.002 42.877C53.0996 42.877 53.1484 42.9941 53.1484 43.2285L53.4121 51.2559C53.2168 52.0957 53.1191 53.7559 53.1191 56.2363V56.3535C53.1191 57.8574 53.1582 58.834 53.2363 59.2832C53.0801 59.3418 53.002 59.4688 53.002 59.6641C53.002 59.918 53.0508 60.0449 53.1484 60.0449H53.2363V59.8398H53.2949C53.3926 59.8398 53.4902 60.2988 53.5879 61.2168L53.5293 61.2461H53.4121C53.2559 61.0703 53.1191 60.9824 53.002 60.9824V61.041V61.1582C53.002 61.4512 53.2559 61.5977 53.7637 61.5977C56.6738 61.4414 58.1289 61.4512 58.1289 61.627V61.6562C58.1289 61.6953 57.9824 61.7637 57.6895 61.8613L57.6602 61.9199V61.9492C57.6992 61.9883 57.875 62.0566 58.1875 62.1543C58.2656 62.2324 58.3047 62.3398 58.3047 62.4766C58.1094 63.5508 57.875 64.0879 57.6016 64.0879L57.0449 64.1465L55.5215 63.9707L54.584 64.0293C49.3496 64.1074 46.7324 64.0488 46.7324 63.8535C46.5762 63.6387 46.498 63.4824 46.498 63.3848V63.3555L46.791 62.3594L46.6738 62.1543C46.6738 61.8613 46.8789 61.666 47.2891 61.5684L47.6406 61.4805L50.3945 61.3926C50.6289 61.3926 50.7656 61.2461 50.8047 60.9531V60.6602C50.8047 59.0586 50.7461 57.7109 50.6289 56.6172C50.8047 50.8359 50.9902 47.9453 51.1855 47.9453L51.2148 47.5645C51.1367 45.9043 51 45.0742 50.8047 45.0742C49.9453 45.6406 49.3691 46.1973 49.0762 46.7441L48.9004 46.832C47.7871 46.4219 47.0742 46.0312 46.7617 45.6602C46.7227 45.6602 46.6836 45.5234 46.6445 45.25L46.7031 45.1621L46.9082 45.1914H47.1133C47.5039 45.1914 48.3438 44.5176 49.6328 43.1699C50.0234 42.8184 50.3359 42.418 50.5703 41.9688C50.7656 41.8516 50.9219 41.793 51.0391 41.793ZM51.3906 42.7891V42.8184L51.4199 42.877H51.4785C51.6543 42.877 51.752 42.8477 51.7715 42.7891V42.7598L51.6836 42.6719H51.5957C51.459 42.6914 51.3906 42.7305 51.3906 42.7891ZM50.5117 42.7891L50.3945 42.877L50.4824 42.9648H50.5703L50.7461 42.9355V42.8477L50.6582 42.7891H50.5117ZM52.7676 43.4043L52.709 43.4922V43.5801L52.7676 43.6094L52.8555 43.5801V43.4922L52.7676 43.4043ZM48.4316 45.8359V45.9238H48.4609C48.7539 45.9238 49.0566 45.7383 49.3691 45.3672C50.4238 44.3906 50.9512 43.7949 50.9512 43.5801H50.8633C49.7695 44.498 48.959 45.25 48.4316 45.8359ZM51.9766 44.4004V44.4297L52.123 44.5469L52.2109 44.5176V44.2246L52.1816 44.166V44.1367C52.0449 44.1562 51.9766 44.2441 51.9766 44.4004ZM51.8594 44.4004H51.7422L51.5371 44.8984V45.0449L51.6543 45.1621H51.8301C51.9473 45.1621 52.0156 45.123 52.0352 45.0449V44.957C52.0352 44.8984 51.9375 44.8301 51.7422 44.752H51.6836V44.6348C51.8008 44.5371 51.8594 44.459 51.8594 44.4004ZM47.8457 45.4258V45.4844H47.9629C48.1777 45.4844 48.3633 45.3379 48.5195 45.0449L48.4902 44.9863H48.4609C48.1875 45.1035 47.9824 45.25 47.8457 45.4258ZM52.1816 46.4805L52.2695 48.502H52.3281C52.4453 48.1699 52.5039 47.6914 52.5039 47.0664V46.2168C52.5039 45.5723 52.4648 45.25 52.3867 45.25C52.2695 45.25 52.2012 45.6602 52.1816 46.4805ZM52.1816 50.9043V51.2266L52.2695 51.7832H52.3281C52.4844 51.7832 52.5625 51.2168 52.5625 50.084V49.9082L52.4746 49.8203C52.2793 49.8984 52.1816 50.2598 52.1816 50.9043ZM51.332 56.2656H51.2441V56.4121H51.332V56.2656ZM52.2695 58.6094V58.6387V58.8438L52.3867 58.9316H52.4453L52.5039 58.873V58.7852C52.4648 58.7852 52.3867 58.7266 52.2695 58.6094ZM52.4746 59.5176H52.4453C52.3281 59.8496 52.2695 60.2598 52.2695 60.748V60.9824C52.2695 61.2168 52.3672 61.373 52.5625 61.4512H52.6211C52.6797 61.4512 52.709 61.3926 52.709 61.2754C52.6895 60.1035 52.6113 59.5176 52.4746 59.5176ZM51.2441 60.25L51.127 60.4258L51.1855 60.543H51.2148L51.332 60.4258V60.3672L51.2441 60.25ZM51.7422 60.748L51.6543 60.8359V61.041L51.7422 61.1289H51.8301V60.8359L51.7422 60.748ZM48.0215 61.7734H47.7578V61.832L47.875 61.9492H47.9336L48.0215 61.832V61.7734ZM47.9629 62.4766L47.1426 62.5645V62.6816L47.2305 62.7988H47.2891C47.4844 62.7988 47.709 62.6914 47.9629 62.4766ZM53.6465 62.3594V62.4766L55.6387 62.1543H55.8145V62.0371C55.3652 61.9785 54.6426 62.0859 53.6465 62.3594ZM48.9004 62.6816L48.2559 62.7695V62.8867H48.4316H48.6953C49.1836 62.8867 49.4277 62.8477 49.4277 62.7695L49.3398 62.6816H48.9004ZM51.2148 62.623L51.1855 62.6816V62.7109C51.2637 62.7891 51.3418 62.8281 51.4199 62.8281V62.7695C51.3809 62.6719 51.3125 62.623 51.2148 62.623ZM50.6875 62.6816L50.6289 62.7695L50.6875 62.8281H50.8047L50.8926 62.7695V62.6816H50.6875ZM51.8301 62.8281L51.6836 62.916V62.9746C51.6836 63.0527 51.9863 63.0918 52.5918 63.0918H52.6211C52.7773 63.0918 52.8555 63.0332 52.8555 62.916C52.7773 62.8574 52.6895 62.8281 52.5918 62.8281H51.8301ZM57.3379 63.1211V63.2383L57.4551 63.3555C57.6699 63.3555 57.7773 63.1992 57.7773 62.8867V62.6523L57.7188 62.5645H57.6016C57.4258 62.7012 57.3379 62.8867 57.3379 63.1211ZM53.4121 63.1504C53.2949 63.3457 53.0898 63.4434 52.7969 63.4434V63.502C52.7969 63.5801 53.0996 63.6289 53.7051 63.6484H53.7637C54.1152 63.375 54.3594 63.1406 54.4961 62.9453C54.4766 62.8867 54.3887 62.877 54.2324 62.916C54.0762 62.9355 53.8027 63.0137 53.4121 63.1504ZM55.5215 62.8867L54.877 62.9453V63.0039C54.877 63.0625 55.1602 63.0918 55.7266 63.0918L55.7559 63.0625V63.0332C55.7168 62.9355 55.6387 62.8867 55.5215 62.8867ZM56.1953 62.8867L56.1074 62.9453L56.1367 63.0625H56.1953L56.2832 63.0039V62.9453L56.1953 62.8867ZM54.8184 63.2969H54.7012V63.3555H54.8184V63.2969ZM56.8398 63.7363V63.7656C56.8398 63.8047 56.9277 63.8438 57.1035 63.8828C57.2988 63.8633 57.3965 63.8145 57.3965 63.7363V63.6777L57.2793 63.5898H57.1621C56.9863 63.5898 56.8789 63.6387 56.8398 63.7363ZM67.0059 43.9902C68.3535 43.9902 69.6133 44.4297 70.7852 45.3086L72.3965 47.7109C72.709 48.1211 72.9922 48.6777 73.2461 49.3809C73.5586 49.8496 73.8418 50.7773 74.0957 52.1641L74.1543 52.8965C74.1543 53.3457 74.0664 53.8535 73.8906 54.4199V54.625C73.8906 54.8594 73.9785 54.9766 74.1543 54.9766L74.0957 56.0898V57.4082C74.0957 57.9941 73.8125 59.1562 73.2461 60.8945C73.0898 61.2461 72.8164 61.5195 72.4258 61.7148C72.0742 62.0664 70.9707 62.7012 69.1152 63.6191C68.3145 64.1855 67.543 64.4688 66.8008 64.4688H66.7715C64.7207 64.293 63.6953 64.127 63.6953 63.9707C63.1094 63.7559 62.4453 63.2285 61.7031 62.3887V62.3008L61.791 62.2129H61.8789L61.9961 62.3008H62.084V62.2129C62.0449 61.998 61.9473 61.8906 61.791 61.8906H61.6152L61.5859 62.0371C61.332 61.959 61.0293 61.5098 60.6777 60.6895C60.541 60.5527 60.4336 60.3379 60.3555 60.0449C59.7695 59.4004 59.3496 57.291 59.0957 53.7168V53.5996C59.2324 51.7051 59.3594 50.7578 59.4766 50.7578C59.4961 50.0156 59.7891 48.9316 60.3555 47.5059C60.6094 47.252 60.8438 46.8613 61.0586 46.334C62.4453 44.7715 64.4277 43.9902 67.0059 43.9902ZM67.0938 44.2832H66.4785V44.3418C66.4785 44.4395 66.7324 44.5371 67.2402 44.6348H67.6797V44.4883C67.6016 44.3516 67.4062 44.2832 67.0938 44.2832ZM68.4414 44.4883L68.3828 44.5762L68.793 44.6641H68.9102L68.998 44.6348C68.998 44.5371 68.8418 44.4883 68.5293 44.4883H68.4414ZM69.6426 44.8984H69.6133V44.9277C70.1211 45.5723 70.5605 45.9336 70.9316 46.0117H70.9609V45.9531C70.4336 45.25 69.9941 44.8984 69.6426 44.8984ZM69.0859 45.1328L68.998 45.1914C69.1348 45.3867 69.2812 45.4844 69.4375 45.4844H69.6426V45.4258C69.6426 45.3086 69.4863 45.2109 69.1738 45.1328H69.0859ZM67.7383 45.1621H67.3281V45.1914C67.543 45.3477 67.9238 45.4551 68.4707 45.5137L68.5293 45.4844V45.4258C68.5293 45.3477 68.2656 45.2598 67.7383 45.1621ZM61.0293 52.8965C61.0684 53.3848 61.127 53.6973 61.2051 53.834L61.0879 54.2734V54.4492L61.7324 57.7891C62.1621 59.0391 62.7188 60.0352 63.4023 60.7773C64.4766 61.4805 65.3164 61.832 65.9219 61.832C66.7812 61.832 67.9141 61.5488 69.3203 60.9824C71.0586 59.9277 71.9277 59.0195 71.9277 58.2578C72.2402 57.2031 72.4941 55.8945 72.6895 54.332V52.8379C72.6895 51.3926 72.3086 50.1426 71.5469 49.0879C71.5469 48.9121 70.9707 48.3066 69.8184 47.2715C69.0566 46.334 68.3828 45.8652 67.7969 45.8652L66.5371 45.5723H66.2734C65.1602 45.5723 64.3008 46.041 63.6953 46.9785C63.2852 47.3105 62.9141 47.7402 62.582 48.2676C62.3867 48.2676 61.9766 48.8145 61.3516 49.9082C61.1367 50.6113 61.0293 51.6074 61.0293 52.8965ZM62.084 46.5391V46.6562C62.1816 46.6562 62.3477 46.4902 62.582 46.1582V46.0117H62.5527C62.4355 46.0117 62.2793 46.1875 62.084 46.5391ZM61.4395 47.0078H61.5273L61.6445 46.8906V46.832C61.5078 46.832 61.4395 46.8906 61.4395 47.0078ZM62.2305 47.8574H62.3477C62.5234 47.7598 62.6309 47.6523 62.6699 47.5352V47.4473H62.4355C62.2988 47.5254 62.2305 47.6621 62.2305 47.8574ZM71.957 47.7988C71.957 48.1699 72.1914 48.834 72.6602 49.791C72.7383 49.8105 72.9531 50.2598 73.3047 51.1387C73.3047 51.2363 73.334 51.2852 73.3926 51.2852L73.5098 51.1973V51.0801C73.3926 50.5918 73.0215 49.6445 72.3965 48.2383C72.2012 47.9453 72.0547 47.7988 71.957 47.7988ZM73.4512 51.959H73.3926V52.0176L73.5977 52.5449C73.5977 52.6426 73.5098 52.8574 73.334 53.1895V53.248C73.334 53.4043 73.4023 53.5215 73.5391 53.5996H73.627C73.6855 53.5996 73.7637 53.3164 73.8613 52.75C73.7051 52.3398 73.5684 52.0762 73.4512 51.959ZM59.7109 52.0469L59.5938 52.1641V52.252L59.7109 52.3398L59.8281 52.2812V52.1348L59.7109 52.0469ZM59.7109 52.8672H59.623L59.5645 53.3359V53.6289C59.6621 53.6289 59.7109 53.4043 59.7109 52.9551V52.8672ZM60.4727 54.0977H60.3555L60.3262 54.3613C60.3262 55.2988 60.5801 56.5586 61.0879 58.1406L61.5273 58.6973H61.5859V58.668C61.4297 58.1992 61.1855 57.0664 60.8535 55.2695C60.7363 55.1523 60.6094 54.7617 60.4727 54.0977ZM60.209 58.1992H60.1504V58.3164H60.209V58.1992ZM72.5137 60.6309V60.6895H72.6016C72.8359 60.6895 73.0996 60.1719 73.3926 59.1367V59.1074L73.334 58.9902C73.1973 58.9902 72.9238 59.5371 72.5137 60.6309ZM60.502 59.9863V60.0742C60.6777 60.1328 60.9316 60.4648 61.2637 61.0703L61.5273 61.2461H61.7031V61.2168C61.332 60.3965 61.0293 59.918 60.7949 59.7812H60.7656C60.668 59.8008 60.5801 59.8691 60.502 59.9863ZM64.3105 62.0078L62.8457 61.1875V61.2461C63.4316 62.125 64.1641 62.5645 65.043 62.5645C65.2773 62.5449 65.3945 62.5059 65.3945 62.4473C65.3555 62.3887 64.9941 62.2422 64.3105 62.0078ZM61.8789 61.3047H61.7031L61.6445 61.4219C61.6641 61.5 61.7422 61.5391 61.8789 61.5391H61.9375L61.9961 61.4805V61.4219L61.8789 61.3047ZM65.4238 62.623L65.3945 62.6523C65.3945 62.7695 65.5703 62.8574 65.9219 62.916H66.1562C66.3711 62.877 66.4785 62.7793 66.4785 62.623H66.7715C67.1816 62.623 68.0312 62.3887 69.3203 61.9199V61.8906L69.2617 61.832H69.0273L67.7969 62.1543C67.2695 62.1543 66.4785 62.3105 65.4238 62.623ZM66.8008 63.3262V63.3555L66.8594 63.4141H67.3281C68.2656 63.2188 68.7344 63.0625 68.7344 62.9453C69.0664 62.8672 69.2812 62.7402 69.3789 62.5645V62.4766H69.3203C68.1875 62.7305 67.3477 63.0137 66.8008 63.3262ZM62.3477 62.6523H62.3184C62.3184 62.8281 62.4941 62.9746 62.8457 63.0918H62.875C62.6602 62.7988 62.4844 62.6523 62.3477 62.6523ZM64.7207 63.1797V63.3262C65.4238 63.6582 65.8633 63.8242 66.0391 63.8242H66.2734V63.6484C65.668 63.3359 65.1504 63.1797 64.7207 63.1797Z" fill="#346473"/>
<path d="M50.632 76.896V85.6C50.632 85.9253 50.5893 86.2267 50.504 86.504C50.4187 86.7867 50.2827 87.032 50.096 87.24C49.9093 87.448 49.6693 87.6107 49.376 87.728C49.088 87.8507 48.7413 87.912 48.336 87.912C48.1653 87.912 48.008 87.8987 47.864 87.872C47.72 87.8453 47.576 87.8053 47.432 87.752L47.488 86.984C47.4987 86.936 47.5173 86.8987 47.544 86.872C47.5653 86.8507 47.5973 86.8373 47.64 86.832C47.6827 86.8267 47.7387 86.824 47.808 86.824C47.872 86.8293 47.9547 86.832 48.056 86.832C48.472 86.832 48.768 86.7333 48.944 86.536C49.12 86.344 49.208 86.032 49.208 85.6V76.896H50.632ZM50.928 74.352C50.928 74.4907 50.8987 74.6213 50.84 74.744C50.7867 74.8613 50.712 74.968 50.616 75.064C50.5253 75.1547 50.4187 75.2267 50.296 75.28C50.1733 75.3333 50.0427 75.36 49.904 75.36C49.7653 75.36 49.6347 75.3333 49.512 75.28C49.3947 75.2267 49.2907 75.1547 49.2 75.064C49.1093 74.968 49.0373 74.8613 48.984 74.744C48.9307 74.6213 48.904 74.4907 48.904 74.352C48.904 74.2133 48.9307 74.0827 48.984 73.96C49.0373 73.832 49.1093 73.7227 49.2 73.632C49.2907 73.536 49.3947 73.4613 49.512 73.408C49.6347 73.3547 49.7653 73.328 49.904 73.328C50.0427 73.328 50.1733 73.3547 50.296 73.408C50.4187 73.4613 50.5253 73.536 50.616 73.632C50.712 73.7227 50.7867 73.832 50.84 73.96C50.8987 74.0827 50.928 74.2133 50.928 74.352ZM57.3638 81.352C56.7078 81.3733 56.1478 81.4267 55.6838 81.512C55.2251 81.592 54.8491 81.6987 54.5558 81.832C54.2678 81.9653 54.0571 82.1227 53.9238 82.304C53.7958 82.4853 53.7318 82.688 53.7318 82.912C53.7318 83.1253 53.7664 83.3093 53.8358 83.464C53.9051 83.6187 53.9984 83.7467 54.1158 83.848C54.2384 83.944 54.3798 84.016 54.5398 84.064C54.7051 84.1067 54.8811 84.128 55.0678 84.128C55.3184 84.128 55.5478 84.104 55.7558 84.056C55.9638 84.0027 56.1584 83.928 56.3398 83.832C56.5264 83.736 56.7024 83.6213 56.8678 83.488C57.0384 83.3547 57.2038 83.2027 57.3638 83.032V81.352ZM52.7638 78.04C53.2118 77.608 53.6944 77.2853 54.2118 77.072C54.7291 76.8587 55.3024 76.752 55.9318 76.752C56.3851 76.752 56.7878 76.8267 57.1398 76.976C57.4918 77.1253 57.7878 77.3333 58.0278 77.6C58.2678 77.8667 58.4491 78.1893 58.5718 78.568C58.6944 78.9467 58.7558 79.3627 58.7558 79.816V85H58.1238C57.9851 85 57.8784 84.9787 57.8038 84.936C57.7291 84.888 57.6704 84.7973 57.6278 84.664L57.4678 83.896C57.2544 84.0933 57.0464 84.2693 56.8438 84.424C56.6411 84.5733 56.4278 84.7013 56.2038 84.808C55.9798 84.9093 55.7398 84.9867 55.4838 85.04C55.2331 85.0987 54.9531 85.128 54.6438 85.128C54.3291 85.128 54.0331 85.0853 53.7558 85C53.4784 84.9093 53.2358 84.776 53.0278 84.6C52.8251 84.424 52.6624 84.2027 52.5398 83.936C52.4224 83.664 52.3638 83.344 52.3638 82.976C52.3638 82.656 52.4518 82.3493 52.6278 82.056C52.8038 81.7573 53.0891 81.4933 53.4838 81.264C53.8784 81.0347 54.3931 80.848 55.0278 80.704C55.6624 80.5547 56.4411 80.4693 57.3638 80.448V79.816C57.3638 79.1867 57.2278 78.712 56.9558 78.392C56.6838 78.0667 56.2864 77.904 55.7638 77.904C55.4118 77.904 55.1158 77.9493 54.8758 78.04C54.6411 78.1253 54.4358 78.224 54.2598 78.336C54.0891 78.4427 53.9398 78.5413 53.8118 78.632C53.6891 78.7173 53.5664 78.76 53.4438 78.76C53.3478 78.76 53.2651 78.736 53.1958 78.688C53.1264 78.6347 53.0678 78.5707 53.0197 78.496L52.7638 78.04ZM62.2769 78.52C62.5329 77.9653 62.8475 77.5333 63.2209 77.224C63.5942 76.9093 64.0502 76.752 64.5889 76.752C64.7595 76.752 64.9222 76.7707 65.0769 76.808C65.2369 76.8453 65.3782 76.904 65.5009 76.984L65.3969 78.048C65.3649 78.1813 65.2849 78.248 65.1569 78.248C65.0822 78.248 64.9729 78.232 64.8289 78.2C64.6849 78.168 64.5222 78.152 64.3409 78.152C64.0849 78.152 63.8555 78.1893 63.6529 78.264C63.4555 78.3387 63.2769 78.4507 63.1169 78.6C62.9622 78.744 62.8209 78.9253 62.6929 79.144C62.5702 79.3573 62.4582 79.6027 62.3569 79.88V85H60.9249V76.896H61.7409C61.8955 76.896 62.0022 76.9253 62.0609 76.984C62.1195 77.0427 62.1595 77.144 62.1809 77.288L62.2769 78.52ZM71.4261 78.232C71.3621 78.3493 71.2635 78.408 71.1301 78.408C71.0501 78.408 70.9595 78.3787 70.8581 78.32C70.7568 78.2613 70.6315 78.1973 70.4821 78.128C70.3381 78.0533 70.1648 77.9867 69.9621 77.928C69.7595 77.864 69.5195 77.832 69.2421 77.832C69.0021 77.832 68.7861 77.864 68.5941 77.928C68.4021 77.9867 68.2368 78.0693 68.0981 78.176C67.9648 78.2827 67.8608 78.408 67.7861 78.552C67.7168 78.6907 67.6821 78.8427 67.6821 79.008C67.6821 79.216 67.7408 79.3893 67.8581 79.528C67.9808 79.6667 68.1408 79.7867 68.3381 79.888C68.5355 79.9893 68.7595 80.08 69.0101 80.16C69.2608 80.2347 69.5168 80.3173 69.7781 80.408C70.0448 80.4933 70.3035 80.5893 70.5541 80.696C70.8048 80.8027 71.0288 80.936 71.2261 81.096C71.4235 81.256 71.5808 81.4533 71.6981 81.688C71.8208 81.9173 71.8821 82.1947 71.8821 82.52C71.8821 82.8933 71.8155 83.24 71.6821 83.56C71.5488 83.8747 71.3515 84.1493 71.0901 84.384C70.8288 84.6133 70.5088 84.7947 70.1301 84.928C69.7515 85.0613 69.3141 85.128 68.8181 85.128C68.2528 85.128 67.7408 85.0373 67.2821 84.856C66.8235 84.6693 66.4341 84.432 66.1141 84.144L66.4501 83.6C66.4928 83.5307 66.5435 83.4773 66.6021 83.44C66.6608 83.4027 66.7355 83.384 66.8261 83.384C66.9221 83.384 67.0235 83.4213 67.1301 83.496C67.2368 83.5707 67.3648 83.6533 67.5141 83.744C67.6688 83.8347 67.8555 83.9173 68.0741 83.992C68.2928 84.0667 68.5648 84.104 68.8901 84.104C69.1675 84.104 69.4101 84.0693 69.6181 84C69.8261 83.9253 69.9995 83.8267 70.1381 83.704C70.2768 83.5813 70.3781 83.44 70.4421 83.28C70.5115 83.12 70.5461 82.9493 70.5461 82.768C70.5461 82.544 70.4848 82.36 70.3621 82.216C70.2448 82.0667 70.0875 81.9413 69.8901 81.84C69.6928 81.7333 69.4661 81.6427 69.2101 81.568C68.9595 81.488 68.7008 81.4053 68.4341 81.32C68.1728 81.2347 67.9141 81.1387 67.6581 81.032C67.4075 80.92 67.1835 80.7813 66.9861 80.616C66.7888 80.4507 66.6288 80.248 66.5061 80.008C66.3888 79.7627 66.3301 79.4667 66.3301 79.12C66.3301 78.8107 66.3941 78.5147 66.5221 78.232C66.6501 77.944 66.8368 77.6933 67.0821 77.48C67.3275 77.2613 67.6288 77.088 67.9861 76.96C68.3435 76.832 68.7515 76.768 69.2101 76.768C69.7435 76.768 70.2208 76.8533 70.6421 77.024C71.0688 77.1893 71.4368 77.4187 71.7461 77.712L71.4261 78.232Z" fill="#004C5C"/>
<path fill-rule="evenodd" clip-rule="evenodd" d="M60.0001 10.7691L60.0001 -0.000116348C43.4779 -0.000116348 28.5199 6.83433 17.6924 17.6922L25.1887 25.1885C34.0977 16.2795 46.4054 10.7691 60.0001 10.7691Z" fill="#819778"/>
<path fill-rule="evenodd" clip-rule="evenodd" d="M10.7692 60.0001C10.7692 60 10.7692 60 10.7692 60C10.7692 46.4053 16.2795 34.0976 25.1885 25.1886L17.6922 17.6924C6.83437 28.5199 -7.43866e-05 43.4779 -7.43866e-05 60.0001H10.7692Z" fill="#819778"/>
<path fill-rule="evenodd" clip-rule="evenodd" d="M10.7692 59.9999C10.7692 60 10.7692 60 10.7692 60C10.7692 73.5947 16.2795 85.9024 25.1885 94.8114L17.6922 102.308C6.83437 91.4801 -7.43866e-05 76.5221 -7.43866e-05 59.9999H10.7692Z" fill="#004C5C"/>
<path fill-rule="evenodd" clip-rule="evenodd" d="M60.0001 109.231L60.0001 120C43.4779 120 28.5199 113.166 17.6924 102.308L25.1887 94.8115C34.0977 103.721 46.4054 109.231 60.0001 109.231Z" fill="#004C5C"/>
<path fill-rule="evenodd" clip-rule="evenodd" d="M59.9999 109.231L59.9999 120C76.5221 120 91.4801 113.166 102.308 102.308L94.8113 94.8115C85.9023 103.721 73.5946 109.231 59.9999 109.231Z" fill="#004C5C"/>
<path fill-rule="evenodd" clip-rule="evenodd" d="M109.231 59.9999C109.231 60 109.231 60 109.231 60C109.231 73.5947 103.721 85.9024 94.8115 94.8114L102.308 102.308C113.166 91.4801 120 76.5221 120 59.9999H109.231Z" fill="#004C5C"/>
<path fill-rule="evenodd" clip-rule="evenodd" d="M109.231 60.0001C109.231 60 109.231 60 109.231 60C109.231 46.4053 103.721 34.0976 94.8115 25.1886L102.308 17.6924C113.166 28.5199 120 43.4779 120 60.0001H109.231Z" fill="#004C5C"/>
<path fill-rule="evenodd" clip-rule="evenodd" d="M59.9999 10.7691L59.9999 -0.000116348C76.5221 -0.000116348 91.4801 6.83433 102.308 17.6922L94.8113 25.1885C85.9023 16.2795 73.5946 10.7691 59.9999 10.7691Z" fill="#004C5C"/>
</svg>
