<svg width="120" height="120" viewBox="0 0 120 120" fill="none" xmlns="http://www.w3.org/2000/svg">
<path d="M61.6738 41.8438L62.3184 41.7559C62.9629 41.7559 63.9688 41.9902 65.3359 42.459C66.0586 42.8301 66.4199 43.0742 66.4199 43.1914C67.084 43.8555 67.416 44.373 67.416 44.7441L67.8848 46.4727C67.6895 47.2148 67.2695 48.2793 66.625 49.666C65.8047 50.3496 64.5938 51.1602 62.9922 52.0977C61.6836 53.3086 60.8242 53.9336 60.4141 53.9727L59.1836 55.0859C57.4258 56.6094 56.5273 57.4102 56.4883 57.4883C56.3125 57.8594 56.1562 58.3379 56.0195 58.9238V58.9824C56.0195 59.1387 56.498 59.2461 57.4551 59.3047V59.4219L56.5176 59.4805V59.5977C58.2168 59.8906 59.3594 60.0371 59.9453 60.0371C59.9062 59.9785 59.2031 59.7832 57.8359 59.4512V59.3633H57.8652C58.2363 59.3633 59.0176 59.5098 60.209 59.8027L61.8496 59.9199L63.2559 59.7734H63.9883C65.2773 59.8516 65.9805 60.0273 66.0977 60.3008L66.9766 60.5645L67.1523 60.6816V60.7988L66.6836 60.916V60.9453L66.8008 61.0918H66.8594L67.2695 61.0332V61.0918C67.2305 61.9512 67.1719 62.3809 67.0938 62.3809L63.666 62.2637H62.9629C62.4746 62.2637 61.8105 62.3125 60.9707 62.4102C58.0215 62.0586 55.9707 61.8828 54.8184 61.8828C54.4668 61.8047 54.291 61.6289 54.291 61.3555C54.1543 61.0039 54.0859 60.5645 54.0859 60.0371V59.1582C54.0859 57.459 54.2812 56.3848 54.6719 55.9355L55.4043 55.4668C55.5215 55.252 55.5801 55.0762 55.5801 54.9395C56.8301 53.9238 57.4941 53.416 57.5723 53.416C58.0996 53.2207 58.8223 52.7227 59.7402 51.9219H59.8867C59.6328 52.2344 59.4277 52.3906 59.2715 52.3906V52.5078H59.4473C59.7012 52.3711 59.9551 52.1562 60.209 51.8633V51.8047H60.0918V51.7168L62.2012 50.3984C63.2754 49.6562 64.125 48.9727 64.75 48.3477C65.2188 47.8203 65.5215 47.127 65.6582 46.2676C65.6582 45.5059 65.3359 44.9297 64.6914 44.5391C64.4766 44.4609 63.5977 44.3535 62.0547 44.2168C62.0547 44.1973 61.8984 44.1777 61.5859 44.1582C60.9219 44.1582 60.2969 44.5488 59.7109 45.3301C59.5547 45.6816 59.4766 45.9453 59.4766 46.1211V46.3262H59.5352C59.5352 46.502 59.2129 46.6289 58.5684 46.707L57.3379 46.8828V46.9121L57.1621 46.8828H56.9277L56.1953 46.9707L56.1367 46.8535C56.4102 45.5059 56.7129 44.666 57.0449 44.334C58.1582 43.3184 58.9395 42.791 59.3887 42.752C59.7207 42.459 60.4824 42.1562 61.6738 41.8438ZM62.8457 42.0488H62.5527V42.1074L62.7285 42.3418H62.9922L63.1094 42.1953V42.166C63.0898 42.0879 63.002 42.0488 62.8457 42.0488ZM60.9707 42.4883V42.5469H61C61.8008 42.5469 62.2012 42.459 62.2012 42.2832L62.0547 42.166H61.7031C61.2148 42.2832 60.9707 42.3906 60.9707 42.4883ZM64.6328 42.3711H64.6035V42.4297C64.6035 42.5469 64.8574 42.6641 65.3652 42.7812V42.752C65.3652 42.6348 65.1211 42.5078 64.6328 42.3711ZM59.8867 42.9277V43.0156H60.2676L60.3848 42.8984V42.8691L60.209 42.8398C59.9941 42.8789 59.8867 42.9082 59.8867 42.9277ZM60.2969 44.041L60.209 44.1582V44.2168H60.3848L60.4727 44.0996V44.041H60.2969ZM65.3945 44.0996L65.3359 44.1582V44.2168C65.4141 44.3535 65.5215 44.4219 65.6582 44.4219H65.6875C65.7461 44.4219 65.7754 44.3828 65.7754 44.3047C65.7754 44.207 65.668 44.1387 65.4531 44.0996H65.3945ZM65.834 44.5391V44.5977C66.1855 44.6367 66.3613 44.793 66.3613 45.0664L66.5371 45.2715V45.0664C66.5371 44.6367 66.4004 44.4219 66.127 44.4219C65.9512 44.4219 65.8535 44.4609 65.834 44.5391ZM59.3594 45.125L59.418 45.1836H59.4473C59.7402 45.0273 59.8867 44.8711 59.8867 44.7148V44.6855H59.7695C59.6914 44.6855 59.5547 44.832 59.3594 45.125ZM58.5391 45.916H58.3926V46.0332L58.5098 46.0625H58.5391V45.916ZM67.0938 46.9121L66.9766 47.0586V47.1465H67.0352L67.123 47.0586V46.9121H67.0938ZM66.4199 48.084H66.2734V48.2305C66.4102 48.2305 66.4785 48.2891 66.4785 48.4062H66.5664V48.2305L66.4199 48.084ZM65.8926 49.1387L65.9219 49.1973V49.2266C66.0391 49.168 66.1562 49.0508 66.2734 48.875V48.8164H66.2148C66.0781 48.8945 65.9707 49.002 65.8926 49.1387ZM65.1016 49.7246H65.1602L65.4824 49.666C65.4824 49.5098 65.4141 49.4316 65.2773 49.4316C65.1602 49.4512 65.1016 49.5488 65.1016 49.7246ZM65.043 50.2812V50.3398C65.4141 50.3008 65.7559 50.0957 66.0684 49.7246L66.0098 49.666C65.5605 49.9004 65.2383 50.1055 65.043 50.2812ZM63.7246 50.8379L63.6367 50.8672V50.9844H63.6953L63.7832 50.8965L63.7246 50.8672V50.8379ZM59.1543 54.3535V54.4414H59.2422C59.3594 54.4414 59.623 54.2656 60.0332 53.9141C60.1309 53.9141 60.2285 53.7969 60.3262 53.5625L60.3848 53.5332V53.4453H60.2969C60.0625 53.4453 59.6816 53.748 59.1543 54.3535ZM57.3086 54.207V54.2949H57.3379C57.5918 54.2949 57.7969 54.0996 57.9531 53.709H57.8066C57.4746 53.9824 57.3086 54.1484 57.3086 54.207ZM56.3418 54.7344H55.9609L55.9902 55.0273C55.7168 55.3008 55.5801 55.4766 55.5801 55.5547H55.6973C56.0488 55.3594 56.293 55.1152 56.4297 54.8223V54.7637L56.3418 54.7344ZM58.5391 55.0273L58.3926 55.1152V55.2031H58.5098L58.627 55.0859V55.0273H58.5391ZM56.1953 56.6973V56.8145H56.2832C56.498 56.6582 56.6055 56.502 56.6055 56.3457V56.3164H56.5176C56.3027 56.4336 56.1953 56.5605 56.1953 56.6973ZM55.4043 59.832L55.3164 59.9199V60.0371L55.4043 60.1543L55.4629 60.0371V59.9199L55.4043 59.832ZM56.1953 59.9199L56.0781 60.0078L56.1367 60.0371H56.5176V59.9492L56.3125 59.9199H56.1953ZM64.1641 60.1543L63.959 60.1836V60.2129L64.0762 60.3301H64.457L64.5449 60.2715V60.1836L64.1641 60.1543ZM54.6133 60.7402L54.4961 60.7988V60.8281L54.584 60.916H54.6133L54.7012 60.8281L54.6133 60.7402ZM55.2285 61.3555V61.3848L55.4629 61.4141C55.7559 61.375 55.9023 61.3359 55.9023 61.2969L55.873 61.2383H55.4629C55.3066 61.2773 55.2285 61.3164 55.2285 61.3555ZM64.7207 61.6777H65.043C65.3164 61.6387 65.4531 61.5898 65.4531 61.5312L65.3652 61.4141H65.1895C65.0918 61.4141 64.9355 61.502 64.7207 61.6777ZM65.7754 61.8535L65.8926 61.9121H66.2148C66.5078 61.9121 66.6543 61.8633 66.6543 61.7656V61.7363C66.6543 61.6777 66.6152 61.6484 66.5371 61.6484C66.0684 61.668 65.8145 61.7363 65.7754 61.8535Z" fill="#346473"/>
<path d="M42.56 75.976C42.9067 75.608 43.2907 75.3147 43.712 75.096C44.1333 74.8773 44.6187 74.768 45.168 74.768C45.6107 74.768 46 74.8427 46.336 74.992C46.6773 75.136 46.96 75.344 47.184 75.616C47.4133 75.8827 47.5867 76.2053 47.704 76.584C47.8213 76.9627 47.88 77.3813 47.88 77.84V83H46.448V77.84C46.448 77.2267 46.3067 76.752 46.024 76.416C45.7467 76.0747 45.3227 75.904 44.752 75.904C44.3307 75.904 43.936 76.0053 43.568 76.208C43.2053 76.4107 42.8693 76.6853 42.56 77.032V83H41.128V71.216H42.56V75.976ZM53.4659 74.768C54.0579 74.768 54.5912 74.8667 55.0659 75.064C55.5405 75.2613 55.9459 75.5413 56.2819 75.904C56.6179 76.2667 56.8739 76.7067 57.0499 77.224C57.2312 77.736 57.3219 78.3093 57.3219 78.944C57.3219 79.584 57.2312 80.16 57.0499 80.672C56.8739 81.184 56.6179 81.6213 56.2819 81.984C55.9459 82.3467 55.5405 82.6267 55.0659 82.824C54.5912 83.016 54.0579 83.112 53.4659 83.112C52.8685 83.112 52.3299 83.016 51.8499 82.824C51.3752 82.6267 50.9699 82.3467 50.6339 81.984C50.2979 81.6213 50.0392 81.184 49.8579 80.672C49.6819 80.16 49.5939 79.584 49.5939 78.944C49.5939 78.3093 49.6819 77.736 49.8579 77.224C50.0392 76.7067 50.2979 76.2667 50.6339 75.904C50.9699 75.5413 51.3752 75.2613 51.8499 75.064C52.3299 74.8667 52.8685 74.768 53.4659 74.768ZM53.4659 82C54.2659 82 54.8632 81.7333 55.2579 81.2C55.6525 80.6613 55.8499 79.912 55.8499 78.952C55.8499 77.9867 55.6525 77.2347 55.2579 76.696C54.8632 76.1573 54.2659 75.888 53.4659 75.888C53.0605 75.888 52.7059 75.9573 52.4019 76.096C52.1032 76.2347 51.8525 76.4347 51.6499 76.696C51.4525 76.9573 51.3032 77.28 51.2019 77.664C51.1059 78.0427 51.0579 78.472 51.0579 78.952C51.0579 79.912 51.2552 80.6613 51.6499 81.2C52.0499 81.7333 52.6552 82 53.4659 82ZM65.792 74.896V83H64.944C64.7413 83 64.6133 82.9013 64.56 82.704L64.448 81.832C64.096 82.2213 63.7013 82.536 63.264 82.776C62.8267 83.0107 62.3253 83.128 61.76 83.128C61.3173 83.128 60.9253 83.056 60.584 82.912C60.248 82.7627 59.9653 82.5547 59.736 82.288C59.5067 82.0213 59.3333 81.6987 59.216 81.32C59.104 80.9413 59.048 80.5227 59.048 80.064V74.896H60.472V80.064C60.472 80.6773 60.6107 81.152 60.888 81.488C61.1707 81.824 61.6 81.992 62.176 81.992C62.5973 81.992 62.9893 81.8933 63.352 81.696C63.72 81.4933 64.0587 81.216 64.368 80.864V74.896H65.792ZM69.4019 76.52C69.6579 75.9653 69.9725 75.5333 70.3459 75.224C70.7192 74.9093 71.1752 74.752 71.7139 74.752C71.8845 74.752 72.0472 74.7707 72.2019 74.808C72.3619 74.8453 72.5032 74.904 72.6259 74.984L72.5219 76.048C72.4899 76.1813 72.4099 76.248 72.2819 76.248C72.2072 76.248 72.0979 76.232 71.9539 76.2C71.8099 76.168 71.6472 76.152 71.4659 76.152C71.2099 76.152 70.9805 76.1893 70.7779 76.264C70.5805 76.3387 70.4019 76.4507 70.2419 76.6C70.0872 76.744 69.9459 76.9253 69.8179 77.144C69.6952 77.3573 69.5832 77.6027 69.4819 77.88V83H68.0499V74.896H68.8659C69.0205 74.896 69.1272 74.9253 69.1859 74.984C69.2445 75.0427 69.2845 75.144 69.3059 75.288L69.4019 76.52ZM78.5511 76.232C78.4871 76.3493 78.3885 76.408 78.2551 76.408C78.1751 76.408 78.0845 76.3787 77.9831 76.32C77.8818 76.2613 77.7565 76.1973 77.6071 76.128C77.4631 76.0533 77.2898 75.9867 77.0871 75.928C76.8845 75.864 76.6445 75.832 76.3671 75.832C76.1271 75.832 75.9111 75.864 75.7191 75.928C75.5271 75.9867 75.3618 76.0693 75.2231 76.176C75.0898 76.2827 74.9858 76.408 74.9111 76.552C74.8418 76.6907 74.8071 76.8427 74.8071 77.008C74.8071 77.216 74.8658 77.3893 74.9831 77.528C75.1058 77.6667 75.2658 77.7867 75.4631 77.888C75.6605 77.9893 75.8845 78.08 76.1351 78.16C76.3858 78.2347 76.6418 78.3173 76.9031 78.408C77.1698 78.4933 77.4285 78.5893 77.6791 78.696C77.9298 78.8027 78.1538 78.936 78.3511 79.096C78.5485 79.256 78.7058 79.4533 78.8231 79.688C78.9458 79.9173 79.0071 80.1947 79.0071 80.52C79.0071 80.8933 78.9405 81.24 78.8071 81.56C78.6738 81.8747 78.4765 82.1493 78.2151 82.384C77.9538 82.6133 77.6338 82.7947 77.2551 82.928C76.8765 83.0613 76.4391 83.128 75.9431 83.128C75.3778 83.128 74.8658 83.0373 74.4071 82.856C73.9485 82.6693 73.5591 82.432 73.2391 82.144L73.5751 81.6C73.6178 81.5307 73.6685 81.4773 73.7271 81.44C73.7858 81.4027 73.8605 81.384 73.9511 81.384C74.0471 81.384 74.1485 81.4213 74.2551 81.496C74.3618 81.5707 74.4898 81.6533 74.6391 81.744C74.7938 81.8347 74.9805 81.9173 75.1991 81.992C75.4178 82.0667 75.6898 82.104 76.0151 82.104C76.2925 82.104 76.5351 82.0693 76.7431 82C76.9511 81.9253 77.1245 81.8267 77.2631 81.704C77.4018 81.5813 77.5031 81.44 77.5671 81.28C77.6365 81.12 77.6711 80.9493 77.6711 80.768C77.6711 80.544 77.6098 80.36 77.4871 80.216C77.3698 80.0667 77.2125 79.9413 77.0151 79.84C76.8178 79.7333 76.5911 79.6427 76.3351 79.568C76.0845 79.488 75.8258 79.4053 75.5591 79.32C75.2978 79.2347 75.0391 79.1387 74.7831 79.032C74.5325 78.92 74.3085 78.7813 74.1111 78.616C73.9138 78.4507 73.7538 78.248 73.6311 78.008C73.5138 77.7627 73.4551 77.4667 73.4551 77.12C73.4551 76.8107 73.5191 76.5147 73.6471 76.232C73.7751 75.944 73.9618 75.6933 74.2071 75.48C74.4525 75.2613 74.7538 75.088 75.1111 74.96C75.4685 74.832 75.8765 74.768 76.3351 74.768C76.8685 74.768 77.3458 74.8533 77.7671 75.024C78.1938 75.1893 78.5618 75.4187 78.8711 75.712L78.5511 76.232Z" fill="#004C5C"/>
<path fill-rule="evenodd" clip-rule="evenodd" d="M60 10.7691V-0.000123978C43.4778 -0.000123978 28.5197 6.83432 17.6923 17.6922L25.1886 25.1885C34.0976 16.2795 46.4053 10.7691 60 10.7691Z" fill="#819778"/>
<path fill-rule="evenodd" clip-rule="evenodd" d="M10.7692 60.0001C10.7692 60 10.7692 60 10.7692 60C10.7692 46.4053 16.2795 34.0976 25.1885 25.1886L17.6922 17.6924C6.83438 28.5199 -6.29425e-05 43.4779 -6.29425e-05 60.0001H10.7692Z" fill="#819778"/>
<path fill-rule="evenodd" clip-rule="evenodd" d="M10.7692 59.9999C10.7692 60 10.7692 60 10.7692 60C10.7692 73.5947 16.2795 85.9024 25.1885 94.8114L17.6922 102.308C6.83438 91.4801 -6.29425e-05 76.5221 -6.29425e-05 59.9999H10.7692Z" fill="#819778"/>
<path fill-rule="evenodd" clip-rule="evenodd" d="M60 109.231V120C43.4778 120 28.5197 113.166 17.6923 102.308L25.1886 94.8115C34.0976 103.721 46.4053 109.231 60 109.231Z" fill="#819778"/>
<path fill-rule="evenodd" clip-rule="evenodd" d="M60 109.231V120C76.5222 120 91.4803 113.166 102.308 102.308L94.8114 94.8115C85.9024 103.721 73.5947 109.231 60 109.231Z" fill="#819778"/>
<path fill-rule="evenodd" clip-rule="evenodd" d="M109.231 59.9999C109.231 60 109.231 60 109.231 60C109.231 73.5947 103.721 85.9024 94.8115 94.8114L102.308 102.308C113.166 91.4801 120 76.5221 120 59.9999H109.231Z" fill="#004C5C"/>
<path fill-rule="evenodd" clip-rule="evenodd" d="M109.231 60.0001C109.231 60 109.231 60 109.231 60C109.231 46.4053 103.721 34.0976 94.8115 25.1886L102.308 17.6924C113.166 28.5199 120 43.4779 120 60.0001H109.231Z" fill="#004C5C"/>
<path fill-rule="evenodd" clip-rule="evenodd" d="M60 10.7691V-0.000125885C76.5222 -0.000125885 91.4803 6.83432 102.308 17.6922L94.8114 25.1885C85.9024 16.2795 73.5947 10.7691 60 10.7691Z" fill="#004C5C"/>
</svg>
