<svg width="120" height="120" viewBox="0 0 120 120" fill="none" xmlns="http://www.w3.org/2000/svg">
<path d="M53.4355 40.7891C56.7559 41.0625 59.5879 41.2383 61.9316 41.3164C62.3223 41.4727 62.7227 41.6094 63.1328 41.7266H63.3086L63.3379 41.6973C63.4746 41.7168 63.543 41.7559 63.543 41.8145V41.9023C63.2109 42.1758 63.0449 42.8691 63.0449 43.9824V44.1582C63.0449 44.2949 63.1426 44.4316 63.3379 44.5684V44.5977L62.5762 47.1172C61.3457 48.8359 60.2324 50.5547 59.2363 52.2734C58.1621 53.6992 57.4395 54.832 57.0684 55.6719L57.0391 56.0527L57.1855 58.5723L56.8926 61.707C56.8926 61.8242 56.5312 61.9414 55.8086 62.0586L55.5449 61.9414H55.2227L55.4277 61.707V61.6484L55.3691 61.5898H55.2812C55.0859 61.5898 54.9102 61.6289 54.7539 61.707C54.5781 61.707 54.4902 61.5117 54.4902 61.1211V60.1543L54.5195 57.9277L54.4902 56.873C54.7051 55.916 55.0176 55.125 55.4277 54.5C55.916 53.9922 56.1602 53.543 56.1602 53.1523C56.2383 53.1523 56.3164 53.0059 56.3945 52.7129L57.8008 50.6328C58.582 49.3828 59.2363 48.1035 59.7637 46.7949L59.9102 46.5898V46.502L59.8516 46.4434L60.8184 43.9238V43.8652C60.5645 43.8652 59.9785 43.7285 59.0605 43.4551C58.3965 43.4551 57.7324 43.3965 57.0684 43.2793L56.4531 43.4844C55.1055 43.3281 54.2754 43.25 53.9629 43.25H53.7285C53.4941 43.25 53.377 43.2695 53.377 43.3086C53.0449 43.3086 52.8008 42.9082 52.6445 42.1074C52.6055 42.1074 52.5859 42.0391 52.5859 41.9023C52.6836 41.5117 52.8398 41.3164 53.0547 41.3164L53.4355 41.3457V41.3164L53.1133 40.9941V40.9648C53.1133 40.9062 53.2207 40.8477 53.4355 40.7891ZM54.4023 41.4922H53.9629V41.5801L54.2559 41.9023V41.9316H53.6406L53.5527 42.0195V42.0781L53.6699 42.166H53.8457L54.2559 42.1074C55.0957 42.2637 55.75 42.3418 56.2188 42.3418H57.0098C57.0098 42.2441 56.6582 42.1562 55.9551 42.0781V41.9902C58.3574 42.1465 59.9785 42.3223 60.8184 42.5176H61.0234C61.0625 42.5176 61.082 42.4688 61.082 42.3711C61.082 42.0977 60.291 41.9316 58.709 41.873L54.4023 41.4922ZM57.9473 42.2246V42.3711L58.2695 42.4297H58.4746V42.3711C58.4746 42.293 58.2988 42.2441 57.9473 42.2246ZM62.0781 42.2246C61.7461 42.2246 61.5801 42.2734 61.5801 42.3711C61.5801 42.4688 61.7949 42.5176 62.2246 42.5176H62.2832L62.4004 42.3711V42.2832L62.1953 42.2246H62.0781ZM53.6992 42.6348L53.6406 42.7227C53.6406 42.8398 53.8848 42.8984 54.373 42.8984H54.8418C54.6074 42.7227 54.2363 42.6348 53.7285 42.6348H53.6992ZM57.6543 42.6641C57.6543 42.7422 58.4062 42.8594 59.9102 43.0156L60.5547 43.1914H60.8184L60.9355 43.0742C60.9355 42.8008 59.8418 42.6641 57.6543 42.6641ZM62.0781 42.957L61.9316 43.1035V43.1621H62.0781L62.1367 42.957H62.0781ZM61.5508 43.8652C61.5898 43.9629 61.6191 44.0117 61.6387 44.0117H61.7266L61.873 43.8652V43.6895L61.7852 43.6602H61.6387C61.5801 43.6992 61.5508 43.7676 61.5508 43.8652ZM62.0781 44.5684V44.5977C62.0781 44.793 62.127 44.9102 62.2246 44.9492H62.3125C62.4102 44.9492 62.459 44.6172 62.459 43.9531L62.4004 43.8359C62.2832 43.9141 62.1758 44.1582 62.0781 44.5684ZM61.2285 44.3047H61.1992L61.2285 44.4805H61.3457V44.3926L61.2285 44.3047ZM62.166 45.3008H62.0195V45.3301L61.9609 46.1504L62.0195 46.209H62.0781C62.1172 46.209 62.1855 46.0137 62.2832 45.623V45.5059L62.166 45.3008ZM60.584 45.5352H60.4375V45.623L60.0273 46.8242V46.8535H60.0859C60.4375 46.3262 60.623 45.9355 60.6426 45.6816V45.5938L60.584 45.5352ZM58.7969 49.959V50.0176H58.9727C59.168 50.0176 59.4609 49.6367 59.8516 48.875C60.6719 47.5469 61.082 46.7852 61.082 46.5898V46.5312L61.0234 46.4434H60.9062C60.7695 46.5605 60.3984 47.127 59.793 48.1426C59.1289 49.1777 58.7969 49.7832 58.7969 49.959ZM61.0234 47.9082H60.9941C60.4473 48.8066 60.1738 49.334 60.1738 49.4902H60.2617C60.7891 48.8848 61.0527 48.3574 61.0527 47.9082H61.0234ZM59.7051 50.2812V50.3398C59.7246 50.3398 59.8711 50.1738 60.1445 49.8418V49.7539H60.0566C59.8223 49.9492 59.7051 50.125 59.7051 50.2812ZM59.0605 51.3945H59.1191C59.3926 51.082 59.5293 50.8281 59.5293 50.6328V50.5742H59.5C59.3438 50.5742 59.1973 50.8477 59.0605 51.3945ZM58.1523 52.4492V52.5664H58.2695L58.4453 52.1562L58.3867 52.127C58.2695 52.127 58.1914 52.2344 58.1523 52.4492ZM56.8047 52.5664V52.6836H56.8633C57.1562 52.4883 57.3027 52.332 57.3027 52.2148H57.2441C57.1074 52.2539 56.9609 52.3711 56.8047 52.5664ZM56.8926 53.4453H56.9512C57.0488 53.4453 57.127 53.377 57.1855 53.2402L57.127 53.1816C56.9707 53.2207 56.8926 53.3086 56.8926 53.4453ZM56.6582 53.709L56.5703 53.8262V53.9141H56.5996L56.7461 53.7969V53.709H56.6582ZM55.5449 55.1152H55.5742C55.8867 54.9199 56.043 54.7637 56.043 54.6465H56.0137C55.7012 54.7832 55.5449 54.9395 55.5449 55.1152ZM56.043 55.5254L55.9258 55.6426V55.6719H56.0723L56.1016 55.5547L56.0723 55.5254H56.043ZM55.9258 56.2578V56.7559C56.082 57.2637 56.1602 57.5664 56.1602 57.6641L56.2773 57.7227H56.3066C56.3652 57.7227 56.4141 57.5859 56.4531 57.3125L56.3066 56.5801L56.3945 55.9648H56.3652L56.3359 55.9355C56.0625 56.0332 55.9258 56.1406 55.9258 56.2578ZM55.4277 56.6387H55.3105V56.7559L55.4277 56.668V56.6387ZM56.1016 59.2168H56.0137V59.3047C56.0137 59.4805 56.0625 59.5879 56.1602 59.627H56.2188L56.3066 59.5391V59.5098C56.3066 59.373 56.2383 59.2754 56.1016 59.2168ZM55.8086 60.5645L55.75 60.6816V60.7402H55.8086L55.8672 60.6816V60.5645H55.8086ZM54.9883 60.8867L54.8418 61.0039V61.1211C54.9004 61.2578 55.0273 61.3262 55.2227 61.3262H55.5742C55.75 61.3262 55.8477 61.2871 55.8672 61.209C55.8672 60.9941 55.6523 60.8867 55.2227 60.8867H54.9883ZM56.3945 61.2969L56.3359 61.3555L56.3652 61.4141H56.4824V61.2969H56.3945Z" fill="#346473"/>
<path d="M48.632 74.896V83.6C48.632 83.9253 48.5893 84.2267 48.504 84.504C48.4187 84.7867 48.2827 85.032 48.096 85.24C47.9093 85.448 47.6693 85.6107 47.376 85.728C47.088 85.8507 46.7413 85.912 46.336 85.912C46.1653 85.912 46.008 85.8987 45.864 85.872C45.72 85.8453 45.576 85.8053 45.432 85.752L45.488 84.984C45.4987 84.936 45.5173 84.8987 45.544 84.872C45.5653 84.8507 45.5973 84.8373 45.64 84.832C45.6827 84.8267 45.7387 84.824 45.808 84.824C45.872 84.8293 45.9547 84.832 46.056 84.832C46.472 84.832 46.768 84.7333 46.944 84.536C47.12 84.344 47.208 84.032 47.208 83.6V74.896H48.632ZM48.928 72.352C48.928 72.4907 48.8987 72.6213 48.84 72.744C48.7867 72.8613 48.712 72.968 48.616 73.064C48.5253 73.1547 48.4187 73.2267 48.296 73.28C48.1733 73.3333 48.0427 73.36 47.904 73.36C47.7653 73.36 47.6347 73.3333 47.512 73.28C47.3947 73.2267 47.2907 73.1547 47.2 73.064C47.1093 72.968 47.0373 72.8613 46.984 72.744C46.9307 72.6213 46.904 72.4907 46.904 72.352C46.904 72.2133 46.9307 72.0827 46.984 71.96C47.0373 71.832 47.1093 71.7227 47.2 71.632C47.2907 71.536 47.3947 71.4613 47.512 71.408C47.6347 71.3547 47.7653 71.328 47.904 71.328C48.0427 71.328 48.1733 71.3547 48.296 71.408C48.4187 71.4613 48.5253 71.536 48.616 71.632C48.712 71.7227 48.7867 71.832 48.84 71.96C48.8987 72.0827 48.928 72.2133 48.928 72.352ZM55.3638 79.352C54.7078 79.3733 54.1478 79.4267 53.6838 79.512C53.2251 79.592 52.8491 79.6987 52.5558 79.832C52.2678 79.9653 52.0571 80.1227 51.9238 80.304C51.7958 80.4853 51.7318 80.688 51.7318 80.912C51.7318 81.1253 51.7664 81.3093 51.8358 81.464C51.9051 81.6187 51.9984 81.7467 52.1158 81.848C52.2384 81.944 52.3798 82.016 52.5398 82.064C52.7051 82.1067 52.8811 82.128 53.0678 82.128C53.3184 82.128 53.5478 82.104 53.7558 82.056C53.9638 82.0027 54.1584 81.928 54.3398 81.832C54.5264 81.736 54.7024 81.6213 54.8678 81.488C55.0384 81.3547 55.2038 81.2027 55.3638 81.032V79.352ZM50.7638 76.04C51.2118 75.608 51.6944 75.2853 52.2118 75.072C52.7291 74.8587 53.3024 74.752 53.9318 74.752C54.3851 74.752 54.7878 74.8267 55.1398 74.976C55.4918 75.1253 55.7878 75.3333 56.0278 75.6C56.2678 75.8667 56.4491 76.1893 56.5718 76.568C56.6944 76.9467 56.7558 77.3627 56.7558 77.816V83H56.1238C55.9851 83 55.8784 82.9787 55.8038 82.936C55.7291 82.888 55.6704 82.7973 55.6278 82.664L55.4678 81.896C55.2544 82.0933 55.0464 82.2693 54.8438 82.424C54.6411 82.5733 54.4278 82.7013 54.2038 82.808C53.9798 82.9093 53.7398 82.9867 53.4838 83.04C53.2331 83.0987 52.9531 83.128 52.6438 83.128C52.3291 83.128 52.0331 83.0853 51.7558 83C51.4784 82.9093 51.2358 82.776 51.0278 82.6C50.8251 82.424 50.6624 82.2027 50.5398 81.936C50.4224 81.664 50.3638 81.344 50.3638 80.976C50.3638 80.656 50.4518 80.3493 50.6278 80.056C50.8038 79.7573 51.0891 79.4933 51.4838 79.264C51.8784 79.0347 52.3931 78.848 53.0278 78.704C53.6624 78.5547 54.4411 78.4693 55.3638 78.448V77.816C55.3638 77.1867 55.2278 76.712 54.9558 76.392C54.6838 76.0667 54.2864 75.904 53.7638 75.904C53.4118 75.904 53.1158 75.9493 52.8758 76.04C52.6411 76.1253 52.4358 76.224 52.2598 76.336C52.0891 76.4427 51.9398 76.5413 51.8118 76.632C51.6891 76.7173 51.5664 76.76 51.4438 76.76C51.3478 76.76 51.2651 76.736 51.1958 76.688C51.1264 76.6347 51.0678 76.5707 51.0197 76.496L50.7638 76.04ZM60.2769 76.52C60.5329 75.9653 60.8475 75.5333 61.2209 75.224C61.5942 74.9093 62.0502 74.752 62.5889 74.752C62.7595 74.752 62.9222 74.7707 63.0769 74.808C63.2369 74.8453 63.3782 74.904 63.5009 74.984L63.3969 76.048C63.3649 76.1813 63.2849 76.248 63.1569 76.248C63.0822 76.248 62.9729 76.232 62.8289 76.2C62.6849 76.168 62.5222 76.152 62.3409 76.152C62.0849 76.152 61.8555 76.1893 61.6529 76.264C61.4555 76.3387 61.2769 76.4507 61.1169 76.6C60.9622 76.744 60.8209 76.9253 60.6929 77.144C60.5702 77.3573 60.4582 77.6027 60.3569 77.88V83H58.9249V74.896H59.7409C59.8955 74.896 60.0022 74.9253 60.0609 74.984C60.1195 75.0427 60.1595 75.144 60.1809 75.288L60.2769 76.52ZM69.4261 76.232C69.3621 76.3493 69.2635 76.408 69.1301 76.408C69.0501 76.408 68.9595 76.3787 68.8581 76.32C68.7568 76.2613 68.6315 76.1973 68.4821 76.128C68.3381 76.0533 68.1648 75.9867 67.9621 75.928C67.7595 75.864 67.5195 75.832 67.2421 75.832C67.0021 75.832 66.7861 75.864 66.5941 75.928C66.4021 75.9867 66.2368 76.0693 66.0981 76.176C65.9648 76.2827 65.8608 76.408 65.7861 76.552C65.7168 76.6907 65.6821 76.8427 65.6821 77.008C65.6821 77.216 65.7408 77.3893 65.8581 77.528C65.9808 77.6667 66.1408 77.7867 66.3381 77.888C66.5355 77.9893 66.7595 78.08 67.0101 78.16C67.2608 78.2347 67.5168 78.3173 67.7781 78.408C68.0448 78.4933 68.3035 78.5893 68.5541 78.696C68.8048 78.8027 69.0288 78.936 69.2261 79.096C69.4235 79.256 69.5808 79.4533 69.6981 79.688C69.8208 79.9173 69.8821 80.1947 69.8821 80.52C69.8821 80.8933 69.8155 81.24 69.6821 81.56C69.5488 81.8747 69.3515 82.1493 69.0901 82.384C68.8288 82.6133 68.5088 82.7947 68.1301 82.928C67.7515 83.0613 67.3141 83.128 66.8181 83.128C66.2528 83.128 65.7408 83.0373 65.2821 82.856C64.8235 82.6693 64.4341 82.432 64.1141 82.144L64.4501 81.6C64.4928 81.5307 64.5435 81.4773 64.6021 81.44C64.6608 81.4027 64.7355 81.384 64.8261 81.384C64.9221 81.384 65.0235 81.4213 65.1301 81.496C65.2368 81.5707 65.3648 81.6533 65.5141 81.744C65.6688 81.8347 65.8555 81.9173 66.0741 81.992C66.2928 82.0667 66.5648 82.104 66.8901 82.104C67.1675 82.104 67.4101 82.0693 67.6181 82C67.8261 81.9253 67.9995 81.8267 68.1381 81.704C68.2768 81.5813 68.3781 81.44 68.4421 81.28C68.5115 81.12 68.5461 80.9493 68.5461 80.768C68.5461 80.544 68.4848 80.36 68.3621 80.216C68.2448 80.0667 68.0875 79.9413 67.8901 79.84C67.6928 79.7333 67.4661 79.6427 67.2101 79.568C66.9595 79.488 66.7008 79.4053 66.4341 79.32C66.1728 79.2347 65.9141 79.1387 65.6581 79.032C65.4075 78.92 65.1835 78.7813 64.9861 78.616C64.7888 78.4507 64.6288 78.248 64.5061 78.008C64.3888 77.7627 64.3301 77.4667 64.3301 77.12C64.3301 76.8107 64.3941 76.5147 64.5221 76.232C64.6501 75.944 64.8368 75.6933 65.0821 75.48C65.3275 75.2613 65.6288 75.088 65.9861 74.96C66.3435 74.832 66.7515 74.768 67.2101 74.768C67.7435 74.768 68.2208 74.8533 68.6421 75.024C69.0688 75.1893 69.4368 75.4187 69.7461 75.712L69.4261 76.232Z" fill="#004C5C"/>
<path fill-rule="evenodd" clip-rule="evenodd" d="M59.9999 10.7691L60 -0.000116348C43.4778 -0.000116348 28.5197 6.83433 17.6923 17.6922L25.1885 25.1885C34.0976 16.2795 46.4052 10.7691 59.9999 10.7691Z" fill="#819778"/>
<path fill-rule="evenodd" clip-rule="evenodd" d="M10.7693 60.0001C10.7693 60 10.7693 60 10.7693 60C10.7693 46.4053 16.2796 34.0976 25.1886 25.1886L17.6924 17.6924C6.83449 28.5199 4.76837e-05 43.4779 4.76837e-05 60.0001H10.7693Z" fill="#819778"/>
<path fill-rule="evenodd" clip-rule="evenodd" d="M10.7692 59.9999C10.7692 60 10.7692 60 10.7692 60C10.7692 73.5947 16.2795 85.9024 25.1885 94.8114L17.6922 102.308C6.83438 91.4801 -6.29425e-05 76.5221 -6.29425e-05 59.9999H10.7692Z" fill="#819778"/>
<path fill-rule="evenodd" clip-rule="evenodd" d="M59.9999 109.231L60 120C43.4778 120 28.5197 113.166 17.6923 102.308L25.1885 94.8115C34.0976 103.721 46.4052 109.231 59.9999 109.231Z" fill="#004C5C"/>
<path fill-rule="evenodd" clip-rule="evenodd" d="M60.0001 109.231L60 120C76.5222 120 91.4803 113.166 102.308 102.308L94.8115 94.8115C85.9024 103.721 73.5948 109.231 60.0001 109.231Z" fill="#004C5C"/>
<path fill-rule="evenodd" clip-rule="evenodd" d="M109.231 59.9999C109.231 60 109.231 60 109.231 60C109.231 73.5947 103.72 85.9024 94.8114 94.8114L102.308 102.308C113.166 91.4801 120 76.5221 120 59.9999H109.231Z" fill="#004C5C"/>
<path fill-rule="evenodd" clip-rule="evenodd" d="M109.231 60.0001C109.231 60 109.231 60 109.231 60C109.231 46.4053 103.72 34.0976 94.8114 25.1886L102.308 17.6924C113.166 28.5199 120 43.4779 120 60.0001H109.231Z" fill="#004C5C"/>
<path fill-rule="evenodd" clip-rule="evenodd" d="M60.0001 10.7691L60 -0.000116348C76.5222 -0.000116348 91.4803 6.83433 102.308 17.6922L94.8115 25.1885C85.9024 16.2795 73.5948 10.7691 60.0001 10.7691Z" fill="#004C5C"/>
</svg>
