<svg width="88" height="87" viewBox="0 0 88 87" fill="none" xmlns="http://www.w3.org/2000/svg">
<g filter="url(#filter0_d)">
<circle cx="44" cy="42" r="35" fill="#004C5C"/>
</g>
<path d="M18.128 38.896V42.744H22.736V44.128H18.128V49H16.416V37.512H23.536V38.896H18.128ZM26.7436 40.872V49H25.1836V40.872H26.7436ZM27.0396 38.36C27.0396 38.504 27.0103 38.6427 26.9516 38.776C26.893 38.904 26.813 39.0187 26.7116 39.12C26.6156 39.216 26.501 39.2933 26.3676 39.352C26.2343 39.4053 26.0956 39.432 25.9516 39.432C25.8076 39.432 25.6716 39.4053 25.5436 39.352C25.4156 39.2933 25.301 39.216 25.1996 39.12C25.1036 39.0187 25.0263 38.904 24.9676 38.776C24.9143 38.6427 24.8876 38.504 24.8876 38.36C24.8876 38.2107 24.9143 38.072 24.9676 37.944C25.0263 37.8107 25.1036 37.696 25.1996 37.6C25.301 37.4987 25.4156 37.4213 25.5436 37.368C25.6716 37.3093 25.8076 37.28 25.9516 37.28C26.0956 37.28 26.2343 37.3093 26.3676 37.368C26.501 37.4213 26.6156 37.4987 26.7116 37.6C26.813 37.696 26.893 37.8107 26.9516 37.944C27.0103 38.072 27.0396 38.2107 27.0396 38.36ZM30.4663 42C30.6423 41.8133 30.8263 41.6427 31.0183 41.488C31.2103 41.3333 31.4129 41.2027 31.6263 41.096C31.8449 40.984 32.0769 40.8987 32.3223 40.84C32.5729 40.776 32.8396 40.744 33.1223 40.744C33.5703 40.744 33.9623 40.8187 34.2983 40.968C34.6396 41.1173 34.9249 41.328 35.1543 41.6C35.3836 41.8667 35.5569 42.1893 35.6743 42.568C35.7916 42.9467 35.8503 43.3653 35.8503 43.824V49H34.2823V43.824C34.2823 43.2427 34.1489 42.792 33.8823 42.472C33.6156 42.1467 33.2076 41.984 32.6583 41.984C32.2583 41.984 31.8823 42.08 31.5303 42.272C31.1836 42.4587 30.8609 42.7147 30.5623 43.04V49H29.0023V40.872H29.9383C30.1569 40.872 30.2929 40.976 30.3463 41.184L30.4663 42ZM43.1954 42.84C42.9394 42.504 42.662 42.2693 42.3634 42.136C42.07 42.0027 41.7394 41.936 41.3714 41.936C40.6567 41.936 40.102 42.1947 39.7074 42.712C39.318 43.224 39.1234 43.9733 39.1234 44.96C39.1234 45.4773 39.166 45.92 39.2514 46.288C39.342 46.6507 39.47 46.9493 39.6354 47.184C39.806 47.4133 40.014 47.584 40.2594 47.696C40.5047 47.8027 40.782 47.856 41.0914 47.856C41.5447 47.856 41.9367 47.7547 42.2674 47.552C42.598 47.3493 42.9074 47.064 43.1954 46.696V42.84ZM44.7634 37.192V49H43.8194C43.6007 49 43.4647 48.896 43.4114 48.688L43.2754 47.752C42.9287 48.1627 42.534 48.4933 42.0914 48.744C41.654 48.9893 41.1474 49.112 40.5714 49.112C40.1074 49.112 39.686 49.0213 39.3074 48.84C38.934 48.6587 38.614 48.3947 38.3474 48.048C38.0807 47.696 37.8754 47.2613 37.7314 46.744C37.5874 46.2267 37.5154 45.632 37.5154 44.96C37.5154 44.3573 37.5954 43.7973 37.7554 43.28C37.9154 42.7627 38.1474 42.3147 38.4514 41.936C38.7554 41.5573 39.1234 41.2613 39.5554 41.048C39.9874 40.8293 40.4754 40.72 41.0194 40.72C41.51 40.72 41.926 40.8 42.2674 40.96C42.614 41.12 42.9234 41.3467 43.1954 41.64V37.192H44.7634ZM63.3866 37.512V49H61.8986V40.824C61.8986 40.7013 61.9013 40.5707 61.9066 40.432C61.9173 40.2933 61.928 40.152 61.9386 40.008L58.1146 47.024C57.9813 47.2853 57.776 47.416 57.4986 47.416H57.2586C56.9813 47.416 56.7786 47.2853 56.6506 47.024L52.7546 39.984C52.7866 40.2827 52.8026 40.5627 52.8026 40.824V49H51.3066V37.512H52.5706C52.72 37.512 52.8346 37.528 52.9146 37.56C53 37.5867 53.08 37.6667 53.1546 37.8L56.9946 44.68C57.0693 44.8187 57.1386 44.9653 57.2026 45.12C57.2666 45.2747 57.328 45.4293 57.3866 45.584C57.4986 45.2693 57.6293 44.9653 57.7786 44.672L61.5466 37.8C61.616 37.6667 61.6906 37.5867 61.7706 37.56C61.856 37.528 61.9733 37.512 62.1226 37.512H63.3866ZM71.0425 44.032C71.0425 43.7227 70.9972 43.4373 70.9065 43.176C70.8212 42.9147 70.6932 42.688 70.5225 42.496C70.3518 42.304 70.1438 42.1547 69.8985 42.048C69.6532 41.9413 69.3705 41.888 69.0505 41.888C68.3945 41.888 67.8772 42.0773 67.4985 42.456C67.1252 42.8347 66.8878 43.36 66.7865 44.032H71.0425ZM72.3305 47.84C72.1385 48.064 71.9172 48.2587 71.6665 48.424C71.4158 48.584 71.1492 48.7147 70.8665 48.816C70.5838 48.9173 70.2905 48.992 69.9865 49.04C69.6878 49.088 69.3918 49.112 69.0985 49.112C68.5385 49.112 68.0185 49.0187 67.5385 48.832C67.0638 48.64 66.6505 48.3627 66.2985 48C65.9518 47.632 65.6798 47.1787 65.4825 46.64C65.2905 46.096 65.1945 45.472 65.1945 44.768C65.1945 44.2027 65.2825 43.6773 65.4585 43.192C65.6345 42.7013 65.8852 42.2747 66.2105 41.912C66.5412 41.5493 66.9438 41.264 67.4185 41.056C67.8932 40.848 68.4265 40.744 69.0185 40.744C69.5145 40.744 69.9705 40.8267 70.3865 40.992C70.8078 41.152 71.1705 41.3867 71.4745 41.696C71.7785 42.0053 72.0158 42.3867 72.1865 42.84C72.3625 43.2933 72.4505 43.8107 72.4505 44.392C72.4505 44.632 72.4238 44.7947 72.3705 44.88C72.3172 44.96 72.2185 45 72.0745 45H66.7465C66.7625 45.4853 66.8318 45.9093 66.9545 46.272C67.0772 46.6293 67.2452 46.928 67.4585 47.168C67.6772 47.408 67.9358 47.5867 68.2345 47.704C68.5332 47.8213 68.8665 47.88 69.2345 47.88C69.5812 47.88 69.8798 47.84 70.1305 47.76C70.3865 47.68 70.6052 47.5947 70.7865 47.504C70.9732 47.408 71.1278 47.32 71.2505 47.24C71.3785 47.16 71.4905 47.12 71.5865 47.12C71.7145 47.12 71.8132 47.168 71.8825 47.264L72.3305 47.84Z" fill="#FFFCF0"/>
<defs>
<filter id="filter0_d" x="0.831683" y="0.465346" width="86.3366" height="86.3366" filterUnits="userSpaceOnUse" color-interpolation-filters="sRGB">
<feFlood flood-opacity="0" result="BackgroundImageFix"/>
<feColorMatrix in="SourceAlpha" type="matrix" values="0 0 0 0 0 0 0 0 0 0 0 0 0 0 0 0 0 0 127 0" result="hardAlpha"/>
<feOffset dy="1.63366"/>
<feGaussianBlur stdDeviation="4.08416"/>
<feComposite in2="hardAlpha" operator="out"/>
<feColorMatrix type="matrix" values="0 0 0 0 0 0 0 0 0 0.298039 0 0 0 0 0.360784 0 0 0 0.5 0"/>
<feBlend mode="normal" in2="BackgroundImageFix" result="effect1_dropShadow"/>
<feBlend mode="normal" in="SourceGraphic" in2="effect1_dropShadow" result="shape"/>
</filter>
</defs>
</svg>
