<svg width="70" height="70" viewBox="0 0 70 70" fill="none" xmlns="http://www.w3.org/2000/svg">
<circle cx="35" cy="35" r="35" fill="#346473"/>
<path d="M9.128 31.896V35.744H13.736V37.128H9.128V42H7.416V30.512H14.536V31.896H9.128ZM17.7436 33.872V42H16.1836V33.872H17.7436ZM18.0396 31.36C18.0396 31.504 18.0103 31.6427 17.9516 31.776C17.893 31.904 17.813 32.0187 17.7116 32.12C17.6156 32.216 17.501 32.2933 17.3676 32.352C17.2343 32.4053 17.0956 32.432 16.9516 32.432C16.8076 32.432 16.6716 32.4053 16.5436 32.352C16.4156 32.2933 16.301 32.216 16.1996 32.12C16.1036 32.0187 16.0263 31.904 15.9676 31.776C15.9143 31.6427 15.8876 31.504 15.8876 31.36C15.8876 31.2107 15.9143 31.072 15.9676 30.944C16.0263 30.8107 16.1036 30.696 16.1996 30.6C16.301 30.4987 16.4156 30.4213 16.5436 30.368C16.6716 30.3093 16.8076 30.28 16.9516 30.28C17.0956 30.28 17.2343 30.3093 17.3676 30.368C17.501 30.4213 17.6156 30.4987 17.7116 30.6C17.813 30.696 17.893 30.8107 17.9516 30.944C18.0103 31.072 18.0396 31.2107 18.0396 31.36ZM21.4663 35C21.6423 34.8133 21.8263 34.6427 22.0183 34.488C22.2103 34.3333 22.4129 34.2027 22.6263 34.096C22.8449 33.984 23.0769 33.8987 23.3223 33.84C23.5729 33.776 23.8396 33.744 24.1223 33.744C24.5703 33.744 24.9623 33.8187 25.2983 33.968C25.6396 34.1173 25.9249 34.328 26.1543 34.6C26.3836 34.8667 26.5569 35.1893 26.6743 35.568C26.7916 35.9467 26.8503 36.3653 26.8503 36.824V42H25.2823V36.824C25.2823 36.2427 25.1489 35.792 24.8823 35.472C24.6156 35.1467 24.2076 34.984 23.6583 34.984C23.2583 34.984 22.8823 35.08 22.5303 35.272C22.1836 35.4587 21.8609 35.7147 21.5623 36.04V42H20.0023V33.872H20.9383C21.1569 33.872 21.2929 33.976 21.3463 34.184L21.4663 35ZM34.1954 35.84C33.9394 35.504 33.662 35.2693 33.3634 35.136C33.07 35.0027 32.7394 34.936 32.3714 34.936C31.6567 34.936 31.102 35.1947 30.7074 35.712C30.318 36.224 30.1234 36.9733 30.1234 37.96C30.1234 38.4773 30.166 38.92 30.2514 39.288C30.342 39.6507 30.47 39.9493 30.6354 40.184C30.806 40.4133 31.014 40.584 31.2594 40.696C31.5047 40.8027 31.782 40.856 32.0914 40.856C32.5447 40.856 32.9367 40.7547 33.2674 40.552C33.598 40.3493 33.9074 40.064 34.1954 39.696V35.84ZM35.7634 30.192V42H34.8194C34.6007 42 34.4647 41.896 34.4114 41.688L34.2754 40.752C33.9287 41.1627 33.534 41.4933 33.0914 41.744C32.654 41.9893 32.1474 42.112 31.5714 42.112C31.1074 42.112 30.686 42.0213 30.3074 41.84C29.934 41.6587 29.614 41.3947 29.3474 41.048C29.0807 40.696 28.8754 40.2613 28.7314 39.744C28.5874 39.2267 28.5154 38.632 28.5154 37.96C28.5154 37.3573 28.5954 36.7973 28.7554 36.28C28.9154 35.7627 29.1474 35.3147 29.4514 34.936C29.7554 34.5573 30.1234 34.2613 30.5554 34.048C30.9874 33.8293 31.4754 33.72 32.0194 33.72C32.51 33.72 32.926 33.8 33.2674 33.96C33.614 34.12 33.9234 34.3467 34.1954 34.64V30.192H35.7634ZM54.3866 30.512V42H52.8986V33.824C52.8986 33.7013 52.9013 33.5707 52.9066 33.432C52.9173 33.2933 52.928 33.152 52.9386 33.008L49.1146 40.024C48.9813 40.2853 48.776 40.416 48.4986 40.416H48.2586C47.9813 40.416 47.7786 40.2853 47.6506 40.024L43.7546 32.984C43.7866 33.2827 43.8026 33.5627 43.8026 33.824V42H42.3066V30.512H43.5706C43.72 30.512 43.8346 30.528 43.9146 30.56C44 30.5867 44.08 30.6667 44.1546 30.8L47.9946 37.68C48.0693 37.8187 48.1386 37.9653 48.2026 38.12C48.2666 38.2747 48.328 38.4293 48.3866 38.584C48.4986 38.2693 48.6293 37.9653 48.7786 37.672L52.5466 30.8C52.616 30.6667 52.6906 30.5867 52.7706 30.56C52.856 30.528 52.9733 30.512 53.1226 30.512H54.3866ZM62.0425 37.032C62.0425 36.7227 61.9972 36.4373 61.9065 36.176C61.8212 35.9147 61.6932 35.688 61.5225 35.496C61.3518 35.304 61.1438 35.1547 60.8985 35.048C60.6532 34.9413 60.3705 34.888 60.0505 34.888C59.3945 34.888 58.8772 35.0773 58.4985 35.456C58.1252 35.8347 57.8878 36.36 57.7865 37.032H62.0425ZM63.3305 40.84C63.1385 41.064 62.9172 41.2587 62.6665 41.424C62.4158 41.584 62.1492 41.7147 61.8665 41.816C61.5838 41.9173 61.2905 41.992 60.9865 42.04C60.6878 42.088 60.3918 42.112 60.0985 42.112C59.5385 42.112 59.0185 42.0187 58.5385 41.832C58.0638 41.64 57.6505 41.3627 57.2985 41C56.9518 40.632 56.6798 40.1787 56.4825 39.64C56.2905 39.096 56.1945 38.472 56.1945 37.768C56.1945 37.2027 56.2825 36.6773 56.4585 36.192C56.6345 35.7013 56.8852 35.2747 57.2105 34.912C57.5412 34.5493 57.9438 34.264 58.4185 34.056C58.8932 33.848 59.4265 33.744 60.0185 33.744C60.5145 33.744 60.9705 33.8267 61.3865 33.992C61.8078 34.152 62.1705 34.3867 62.4745 34.696C62.7785 35.0053 63.0158 35.3867 63.1865 35.84C63.3625 36.2933 63.4505 36.8107 63.4505 37.392C63.4505 37.632 63.4238 37.7947 63.3705 37.88C63.3172 37.96 63.2185 38 63.0745 38H57.7465C57.7625 38.4853 57.8318 38.9093 57.9545 39.272C58.0772 39.6293 58.2452 39.928 58.4585 40.168C58.6772 40.408 58.9358 40.5867 59.2345 40.704C59.5332 40.8213 59.8665 40.88 60.2345 40.88C60.5812 40.88 60.8798 40.84 61.1305 40.76C61.3865 40.68 61.6052 40.5947 61.7865 40.504C61.9732 40.408 62.1278 40.32 62.2505 40.24C62.3785 40.16 62.4905 40.12 62.5865 40.12C62.7145 40.12 62.8132 40.168 62.8825 40.264L63.3305 40.84Z" fill="#FFFCF0"/>
</svg>
