<svg width="90" height="90" viewBox="0 0 90 90" fill="none" xmlns="http://www.w3.org/2000/svg">
<circle cx="45" cy="45" r="45" fill="#346473"/>
<path d="M20.36 41.384C20.3067 41.4747 20.2507 41.5413 20.192 41.584C20.1333 41.6267 20.0587 41.648 19.968 41.648C19.872 41.648 19.7627 41.6053 19.64 41.52C19.5173 41.4293 19.3627 41.3307 19.176 41.224C18.9947 41.112 18.776 41.0133 18.52 40.928C18.264 40.8373 17.9573 40.792 17.6 40.792C17.264 40.792 16.968 40.8373 16.712 40.928C16.4613 41.0133 16.2507 41.1333 16.08 41.288C15.9093 41.4373 15.7787 41.616 15.688 41.824C15.6027 42.0267 15.56 42.248 15.56 42.488C15.56 42.7973 15.6373 43.0533 15.792 43.256C15.952 43.4587 16.16 43.632 16.416 43.776C16.672 43.92 16.9627 44.0453 17.288 44.152C17.6133 44.2587 17.9467 44.3707 18.288 44.488C18.6293 44.6 18.9627 44.7307 19.288 44.88C19.6133 45.0293 19.904 45.2187 20.16 45.448C20.416 45.672 20.6213 45.9493 20.776 46.28C20.936 46.6053 21.016 47.0053 21.016 47.48C21.016 47.9867 20.928 48.4613 20.752 48.904C20.5813 49.3467 20.3307 49.7333 20 50.064C19.6693 50.3947 19.2613 50.656 18.776 50.848C18.296 51.0347 17.7493 51.128 17.136 51.128C16.768 51.128 16.4107 51.0907 16.064 51.016C15.7173 50.9467 15.3893 50.848 15.08 50.72C14.7707 50.5867 14.48 50.4293 14.208 50.248C13.9413 50.0613 13.7013 49.8533 13.488 49.624L13.976 48.808C14.024 48.744 14.08 48.6907 14.144 48.648C14.2133 48.6053 14.2907 48.584 14.376 48.584C14.488 48.584 14.616 48.6427 14.76 48.76C14.9093 48.8773 15.0907 49.008 15.304 49.152C15.5227 49.2907 15.7813 49.4187 16.08 49.536C16.384 49.6533 16.752 49.712 17.184 49.712C17.536 49.712 17.8507 49.6667 18.128 49.576C18.4053 49.48 18.6373 49.3467 18.824 49.176C19.016 49 19.1627 48.7893 19.264 48.544C19.3653 48.2987 19.416 48.0267 19.416 47.728C19.416 47.392 19.3387 47.1173 19.184 46.904C19.0293 46.6907 18.824 46.512 18.568 46.368C18.312 46.224 18.0213 46.1013 17.696 46C17.3707 45.8987 17.0373 45.7947 16.696 45.688C16.3547 45.576 16.0213 45.448 15.696 45.304C15.3707 45.16 15.08 44.9733 14.824 44.744C14.568 44.5093 14.3627 44.2187 14.208 43.872C14.0533 43.52 13.976 43.088 13.976 42.576C13.976 42.1653 14.056 41.768 14.216 41.384C14.376 41 14.608 40.6613 14.912 40.368C15.2213 40.0693 15.6 39.832 16.048 39.656C16.496 39.4747 17.008 39.384 17.584 39.384C18.2293 39.384 18.8213 39.488 19.36 39.696C19.904 39.8987 20.376 40.192 20.776 40.576L20.36 41.384ZM27.0578 47.392C26.4231 47.4133 25.8844 47.464 25.4418 47.544C24.9991 47.6187 24.6391 47.72 24.3618 47.848C24.0844 47.976 23.8844 48.128 23.7618 48.304C23.6391 48.4747 23.5778 48.6667 23.5778 48.88C23.5778 49.0827 23.6098 49.2587 23.6738 49.408C23.7431 49.552 23.8338 49.672 23.9457 49.768C24.0631 49.8587 24.1991 49.9253 24.3538 49.968C24.5084 50.0107 24.6764 50.032 24.8578 50.032C25.0978 50.032 25.3164 50.008 25.5138 49.96C25.7164 49.912 25.9058 49.8453 26.0818 49.76C26.2578 49.6693 26.4258 49.56 26.5858 49.432C26.7458 49.304 26.9031 49.1573 27.0578 48.992V47.392ZM22.4818 44.008C22.9351 43.576 23.4258 43.2533 23.9538 43.04C24.4871 42.8267 25.0711 42.72 25.7057 42.72C26.1698 42.72 26.5804 42.7973 26.9378 42.952C27.2951 43.1013 27.5964 43.312 27.8418 43.584C28.0871 43.856 28.2711 44.1813 28.3938 44.56C28.5218 44.9387 28.5858 45.3573 28.5858 45.816V51H27.8898C27.7351 51 27.6178 50.976 27.5378 50.928C27.4578 50.8747 27.3938 50.7787 27.3458 50.64L27.1778 49.928C26.9698 50.12 26.7644 50.2907 26.5618 50.44C26.3591 50.584 26.1458 50.7093 25.9218 50.816C25.7031 50.9173 25.4684 50.9947 25.2178 51.048C24.9671 51.1013 24.6898 51.128 24.3858 51.128C24.0658 51.128 23.7644 51.0853 23.4818 51C23.2044 50.9093 22.9618 50.7733 22.7538 50.592C22.5458 50.4107 22.3804 50.184 22.2578 49.912C22.1404 49.64 22.0818 49.3227 22.0818 48.96C22.0818 48.64 22.1671 48.3333 22.3378 48.04C22.5138 47.7413 22.7964 47.4747 23.1858 47.24C23.5804 47.0053 24.0924 46.8133 24.7218 46.664C25.3564 46.5147 26.1351 46.4293 27.0578 46.408V45.816C27.0578 45.2027 26.9271 44.744 26.6658 44.44C26.4044 44.136 26.0204 43.984 25.5138 43.984C25.1724 43.984 24.8844 44.0267 24.6498 44.112C24.4204 44.1973 24.2204 44.2933 24.0498 44.4C23.8844 44.5013 23.7378 44.5947 23.6098 44.68C23.4871 44.7653 23.3591 44.808 23.2258 44.808C23.1191 44.808 23.0258 44.7787 22.9458 44.72C22.8711 44.6613 22.8098 44.592 22.7618 44.512L22.4818 44.008ZM37.5583 42.872L34.2623 51H32.8543L29.5583 42.872H30.8463C30.9689 42.872 31.0703 42.9013 31.1503 42.96C31.2303 43.0187 31.2836 43.0933 31.3103 43.184L33.2543 48.176C33.3236 48.384 33.3823 48.592 33.4303 48.8C33.4836 49.0027 33.5316 49.2053 33.5743 49.408C33.6169 49.2053 33.6649 49.0027 33.7183 48.8C33.7716 48.5973 33.8356 48.3893 33.9103 48.176L35.8783 43.184C35.9103 43.0933 35.9663 43.0187 36.0463 42.96C36.1263 42.9013 36.2223 42.872 36.3343 42.872H37.5583ZM43.9488 46.032C43.9488 45.7227 43.9034 45.4373 43.8128 45.176C43.7274 44.9147 43.5994 44.688 43.4288 44.496C43.2581 44.304 43.0501 44.1547 42.8048 44.048C42.5594 43.9413 42.2768 43.888 41.9568 43.888C41.3008 43.888 40.7834 44.0773 40.4048 44.456C40.0314 44.8347 39.7941 45.36 39.6928 46.032H43.9488ZM45.2368 49.84C45.0448 50.064 44.8234 50.2587 44.5728 50.424C44.3221 50.584 44.0554 50.7147 43.7728 50.816C43.4901 50.9173 43.1968 50.992 42.8928 51.04C42.5941 51.088 42.2981 51.112 42.0048 51.112C41.4448 51.112 40.9248 51.0187 40.4448 50.832C39.9701 50.64 39.5568 50.3627 39.2048 50C38.8581 49.632 38.5861 49.1787 38.3888 48.64C38.1968 48.096 38.1008 47.472 38.1008 46.768C38.1008 46.2027 38.1888 45.6773 38.3648 45.192C38.5408 44.7013 38.7914 44.2747 39.1168 43.912C39.4474 43.5493 39.8501 43.264 40.3248 43.056C40.7994 42.848 41.3328 42.744 41.9248 42.744C42.4208 42.744 42.8768 42.8267 43.2928 42.992C43.7141 43.152 44.0768 43.3867 44.3808 43.696C44.6848 44.0053 44.9221 44.3867 45.0928 44.84C45.2688 45.2933 45.3568 45.8107 45.3568 46.392C45.3568 46.632 45.3301 46.7947 45.2768 46.88C45.2234 46.96 45.1248 47 44.9808 47H39.6528C39.6688 47.4853 39.7381 47.9093 39.8608 48.272C39.9834 48.6293 40.1514 48.928 40.3648 49.168C40.5834 49.408 40.8421 49.5867 41.1408 49.704C41.4394 49.8213 41.7728 49.88 42.1408 49.88C42.4874 49.88 42.7861 49.84 43.0368 49.76C43.2928 49.68 43.5114 49.5947 43.6928 49.504C43.8794 49.408 44.0341 49.32 44.1568 49.24C44.2848 49.16 44.3968 49.12 44.4928 49.12C44.6208 49.12 44.7194 49.168 44.7888 49.264L45.2368 49.84ZM53.1124 51H51.4004V39.512H53.1124V51ZM56.9663 44C57.1423 43.8133 57.3263 43.6427 57.5183 43.488C57.7103 43.3333 57.9129 43.2027 58.1263 43.096C58.3449 42.984 58.5769 42.8987 58.8223 42.84C59.0729 42.776 59.3396 42.744 59.6223 42.744C60.0703 42.744 60.4623 42.8187 60.7983 42.968C61.1396 43.1173 61.4249 43.328 61.6543 43.6C61.8836 43.8667 62.0569 44.1893 62.1743 44.568C62.2916 44.9467 62.3503 45.3653 62.3503 45.824V51H60.7823V45.824C60.7823 45.2427 60.6489 44.792 60.3823 44.472C60.1156 44.1467 59.7076 43.984 59.1583 43.984C58.7583 43.984 58.3823 44.08 58.0303 44.272C57.6836 44.4587 57.3609 44.7147 57.0623 45.04V51H55.5023V42.872H56.4383C56.6569 42.872 56.7929 42.976 56.8463 43.184L56.9663 44ZM64.8664 51V44.152L64.0184 44.048C63.8957 44.0213 63.7944 43.9787 63.7144 43.92C63.6397 43.856 63.6024 43.7653 63.6024 43.648V43H64.8664V42.264C64.8664 41.8 64.933 41.3867 65.0664 41.024C65.1997 40.6613 65.389 40.3547 65.6344 40.104C65.885 39.848 66.1837 39.656 66.5304 39.528C66.8824 39.3947 67.277 39.328 67.7144 39.328C68.0824 39.328 68.421 39.3813 68.7304 39.488L68.6984 40.272C68.693 40.3413 68.6717 40.3947 68.6344 40.432C68.597 40.464 68.5464 40.488 68.4824 40.504C68.4237 40.52 68.349 40.5307 68.2584 40.536C68.173 40.536 68.0797 40.536 67.9784 40.536C67.7384 40.536 67.5197 40.5653 67.3224 40.624C67.125 40.6827 66.957 40.7813 66.8184 40.92C66.6797 41.0587 66.573 41.2427 66.4984 41.472C66.4237 41.696 66.3864 41.976 66.3864 42.312V43H68.6664V44.136H66.4344V51H64.8664ZM73.185 42.744C73.7823 42.744 74.321 42.8427 74.801 43.04C75.2863 43.232 75.697 43.512 76.033 43.88C76.3743 44.2427 76.6357 44.6827 76.817 45.2C76.9983 45.712 77.089 46.288 77.089 46.928C77.089 47.568 76.9983 48.1467 76.817 48.664C76.6357 49.1813 76.3743 49.6213 76.033 49.984C75.697 50.3467 75.2863 50.6267 74.801 50.824C74.321 51.016 73.7823 51.112 73.185 51.112C72.5823 51.112 72.0383 51.016 71.553 50.824C71.073 50.6267 70.6623 50.3467 70.321 49.984C69.9797 49.6213 69.7157 49.1813 69.529 48.664C69.3477 48.1467 69.257 47.568 69.257 46.928C69.257 46.288 69.3477 45.712 69.529 45.2C69.7157 44.6827 69.9797 44.2427 70.321 43.88C70.6623 43.512 71.073 43.232 71.553 43.04C72.0383 42.8427 72.5823 42.744 73.185 42.744ZM73.185 49.896C73.953 49.896 74.5263 49.6373 74.905 49.12C75.2837 48.6027 75.473 47.8747 75.473 46.936C75.473 45.9973 75.2837 45.2693 74.905 44.752C74.5263 44.2293 73.953 43.968 73.185 43.968C72.4063 43.968 71.825 44.2293 71.441 44.752C71.0623 45.2693 70.873 45.9973 70.873 46.936C70.873 47.8747 71.0623 48.6027 71.441 49.12C71.825 49.6373 72.4063 49.896 73.185 49.896Z" fill="#FFFCF0"/>
</svg>
