<svg width="186" height="46" viewBox="0 0 186 46" fill="none" xmlns="http://www.w3.org/2000/svg">
<rect x="1.5" y="1.95618" width="183" height="41.9123" stroke="#EED690" stroke-width="3"/>
<path d="M19.368 19.6123H15.88V29.4123H13.728V19.6123H10.24V17.8443H19.368V19.6123ZM25.8498 24.9323V29.4123H23.7057V24.9323L19.4897 17.8443H21.3858C21.5724 17.8443 21.7191 17.8896 21.8258 17.9803C21.9378 18.071 22.0311 18.1856 22.1058 18.3243L24.2178 22.1883C24.3404 22.4176 24.4471 22.6336 24.5378 22.8363C24.6338 23.039 24.7191 23.2416 24.7938 23.4443C24.8631 23.2416 24.9431 23.039 25.0338 22.8363C25.1244 22.6336 25.2284 22.4176 25.3458 22.1883L27.4498 18.3243C27.5084 18.207 27.5964 18.0976 27.7138 17.9963C27.8311 17.895 27.9804 17.8443 28.1618 17.8443H30.0658L25.8498 24.9323ZM35.0168 23.6603C35.4114 23.6603 35.7554 23.6123 36.0488 23.5163C36.3421 23.415 36.5848 23.2736 36.7768 23.0923C36.9741 22.9056 37.1208 22.6816 37.2168 22.4203C37.3128 22.1536 37.3608 21.8576 37.3608 21.5323C37.3608 21.223 37.3128 20.943 37.2168 20.6923C37.1208 20.4416 36.9768 20.2283 36.7848 20.0523C36.5928 19.8763 36.3501 19.743 36.0568 19.6523C35.7634 19.5563 35.4168 19.5083 35.0168 19.5083H33.4088V23.6603H35.0168ZM35.0168 17.8443C35.7901 17.8443 36.4594 17.935 37.0248 18.1163C37.5901 18.2976 38.0568 18.551 38.4248 18.8763C38.7928 19.2016 39.0648 19.591 39.2408 20.0443C39.4221 20.4976 39.5128 20.9936 39.5128 21.5323C39.5128 22.0923 39.4194 22.607 39.2328 23.0763C39.0461 23.5403 38.7661 23.9403 38.3928 24.2763C38.0194 24.6123 37.5501 24.8736 36.9848 25.0603C36.4248 25.247 35.7688 25.3403 35.0168 25.3403H33.4088V29.4123H31.2568V17.8443H35.0168ZM43.323 19.5563V22.7643H47.371V24.4203H43.323V27.6923H48.459V29.4123H41.163V17.8443H48.459V19.5563H43.323Z" fill="#346473"/>
<path d="M155.467 16.4523L163.5 24.4379L171.533 16.4523L174 18.9108L163.5 29.3723L153 18.9108L155.467 16.4523Z" fill="#346473"/>
</svg>
