<svg width="1050" height="410" viewBox="0 0 1050 410" fill="none" xmlns="http://www.w3.org/2000/svg">
<rect x="107.242" y="213.273" width="31.2421" height="189.633" fill="#959595" fill-opacity="0.3"/>
<rect x="761.147" y="213.273" width="31.2421" height="189.633" fill="#959595" fill-opacity="0.3"/>
<rect x="630.366" y="126.085" width="31.2421" height="276.82" fill="#959595" fill-opacity="0.3"/>
<rect x="368.804" y="272.852" width="31.2421" height="130.055" fill="#959595" fill-opacity="0.3"/>
<rect x="238.023" y="204.554" width="31.2421" height="198.351" fill="#959595" fill-opacity="0.3"/>
<rect x="891.929" y="125.359" width="31.2421" height="277.547" fill="#959595" fill-opacity="0.3"/>
<rect x="76" y="169.68" width="31.2421" height="233.226" fill="#959595" fill-opacity="0.4"/>
<rect x="729.905" y="238.702" width="31.2421" height="164.203" fill="#959595" fill-opacity="0.4"/>
<rect x="599.124" y="301.914" width="31.2421" height="100.992" fill="#959595" fill-opacity="0.4"/>
<rect x="337.562" y="346.96" width="31.2421" height="55.9452" fill="#959595" fill-opacity="0.4"/>
<rect x="206.781" y="272.852" width="31.2421" height="130.055" fill="#959595" fill-opacity="0.4"/>
<rect x="860.687" y="169.68" width="31.2421" height="233.226" fill="#959595" fill-opacity="0.4"/>
<rect x="138.484" y="124.633" width="31.2421" height="278.273" fill="#959595" fill-opacity="0.2"/>
<rect x="792.39" y="312.812" width="31.2421" height="90.0936" fill="#959595" fill-opacity="0.2"/>
<rect x="661.609" y="365.124" width="31.2421" height="37.7812" fill="#959595" fill-opacity="0.2"/>
<rect x="500.554" y="126.086" width="32.2109" height="276.82" fill="#8BB380"/>
<rect x="468.343" y="83.2188" width="32.2109" height="319.687" fill="#599450"/>
<rect x="532.765" y="322.984" width="32.2109" height="79.9218" fill="#BDD2B0"/>
<rect x="400.047" y="291.015" width="31.2421" height="111.89" fill="#959595" fill-opacity="0.2"/>
<rect x="269.265" y="247.422" width="31.2421" height="155.484" fill="#959595" fill-opacity="0.2"/>
<rect x="923.171" y="377.476" width="31.2421" height="25.4297" fill="#959595" fill-opacity="0.2"/>
<path d="M42.6655 402.542H989.031" stroke="#346473" stroke-width="3"/>
<ellipse cx="42.3173" cy="401.816" rx="7.31726" ry="7.6289" fill="#346473"/>
<ellipse cx="988.683" cy="401.816" rx="7.31726" ry="7.6289" fill="#346473"/>
<ellipse cx="43.014" cy="38.6289" rx="7.31726" ry="7.6289" fill="#346473"/>
<path d="M43 401L43 39" stroke="#346473" stroke-width="3"/>
<path d="M21.918 396.538C21.918 397.666 21.795 398.644 21.549 399.472C21.309 400.3 20.976 400.987 20.55 401.533C20.13 402.073 19.632 402.475 19.056 402.739C18.486 403.003 17.871 403.135 17.211 403.135C16.551 403.135 15.933 403.003 15.357 402.739C14.787 402.475 14.292 402.073 13.872 401.533C13.452 400.987 13.122 400.3 12.882 399.472C12.642 398.644 12.522 397.666 12.522 396.538C12.522 395.41 12.642 394.432 12.882 393.604C13.122 392.77 13.452 392.083 13.872 391.543C14.292 390.997 14.787 390.592 15.357 390.328C15.933 390.064 16.551 389.932 17.211 389.932C17.871 389.932 18.486 390.064 19.056 390.328C19.632 390.592 20.13 390.997 20.55 391.543C20.976 392.083 21.309 392.77 21.549 393.604C21.795 394.432 21.918 395.41 21.918 396.538ZM20.1 396.538C20.1 395.566 20.019 394.753 19.857 394.099C19.701 393.445 19.488 392.92 19.218 392.524C18.954 392.122 18.648 391.837 18.3 391.669C17.952 391.501 17.589 391.417 17.211 391.417C16.833 391.417 16.47 391.501 16.122 391.669C15.774 391.837 15.465 392.122 15.195 392.524C14.931 392.92 14.721 393.445 14.565 394.099C14.409 394.753 14.331 395.566 14.331 396.538C14.331 397.51 14.409 398.323 14.565 398.977C14.721 399.631 14.931 400.156 15.195 400.552C15.465 400.948 15.774 401.23 16.122 401.398C16.47 401.566 16.833 401.65 17.211 401.65C17.589 401.65 17.952 401.566 18.3 401.398C18.648 401.23 18.954 400.948 19.218 400.552C19.488 400.156 19.701 399.631 19.857 398.977C20.019 398.323 20.1 397.51 20.1 396.538Z" fill="#004C5C"/>
<path d="M8.874 47.335C9.066 47.335 9.216 47.392 9.324 47.506C9.432 47.614 9.486 47.758 9.486 47.938V49H0.81V48.397C0.81 48.277 0.834 48.151 0.882 48.019C0.93 47.881 1.011 47.758 1.125 47.65L5.211 43.555C5.553 43.213 5.862 42.883 6.138 42.565C6.414 42.247 6.648 41.932 6.84 41.62C7.032 41.302 7.179 40.978 7.281 40.648C7.389 40.318 7.443 39.97 7.443 39.604C7.443 39.244 7.386 38.929 7.272 38.659C7.158 38.383 7.002 38.155 6.804 37.975C6.606 37.795 6.372 37.66 6.102 37.57C5.832 37.48 5.541 37.435 5.229 37.435C4.917 37.435 4.629 37.48 4.365 37.57C4.107 37.66 3.876 37.786 3.672 37.948C3.468 38.11 3.297 38.302 3.159 38.524C3.021 38.746 2.922 38.986 2.862 39.244C2.778 39.472 2.67 39.625 2.538 39.703C2.412 39.781 2.226 39.799 1.98 39.757L1.062 39.595C1.146 38.995 1.311 38.467 1.557 38.011C1.803 37.555 2.112 37.174 2.484 36.868C2.856 36.556 3.282 36.322 3.762 36.166C4.248 36.01 4.77 35.932 5.328 35.932C5.892 35.932 6.411 36.016 6.885 36.184C7.365 36.346 7.779 36.583 8.127 36.895C8.475 37.207 8.748 37.588 8.946 38.038C9.144 38.482 9.243 38.986 9.243 39.55C9.243 40.03 9.171 40.477 9.027 40.891C8.889 41.299 8.697 41.689 8.451 42.061C8.211 42.433 7.929 42.796 7.605 43.15C7.287 43.498 6.948 43.852 6.588 44.212L3.312 47.56C3.564 47.494 3.816 47.44 4.068 47.398C4.326 47.356 4.569 47.335 4.797 47.335H8.874ZM20.6294 42.538C20.6294 43.666 20.5064 44.644 20.2604 45.472C20.0204 46.3 19.6874 46.987 19.2614 47.533C18.8414 48.073 18.3434 48.475 17.7674 48.739C17.1974 49.003 16.5824 49.135 15.9224 49.135C15.2624 49.135 14.6444 49.003 14.0684 48.739C13.4984 48.475 13.0034 48.073 12.5834 47.533C12.1634 46.987 11.8334 46.3 11.5934 45.472C11.3534 44.644 11.2334 43.666 11.2334 42.538C11.2334 41.41 11.3534 40.432 11.5934 39.604C11.8334 38.77 12.1634 38.083 12.5834 37.543C13.0034 36.997 13.4984 36.592 14.0684 36.328C14.6444 36.064 15.2624 35.932 15.9224 35.932C16.5824 35.932 17.1974 36.064 17.7674 36.328C18.3434 36.592 18.8414 36.997 19.2614 37.543C19.6874 38.083 20.0204 38.77 20.2604 39.604C20.5064 40.432 20.6294 41.41 20.6294 42.538ZM18.8114 42.538C18.8114 41.566 18.7304 40.753 18.5684 40.099C18.4124 39.445 18.1994 38.92 17.9294 38.524C17.6654 38.122 17.3594 37.837 17.0114 37.669C16.6634 37.501 16.3004 37.417 15.9224 37.417C15.5444 37.417 15.1814 37.501 14.8334 37.669C14.4854 37.837 14.1764 38.122 13.9064 38.524C13.6424 38.92 13.4324 39.445 13.2764 40.099C13.1204 40.753 13.0424 41.566 13.0424 42.538C13.0424 43.51 13.1204 44.323 13.2764 44.977C13.4324 45.631 13.6424 46.156 13.9064 46.552C14.1764 46.948 14.4854 47.23 14.8334 47.398C15.1814 47.566 15.5444 47.65 15.9224 47.65C16.3004 47.65 16.6634 47.566 17.0114 47.398C17.3594 47.23 17.6654 46.948 17.9294 46.552C18.1994 46.156 18.4124 45.631 18.5684 44.977C18.7304 44.323 18.8114 43.51 18.8114 42.538Z" fill="#004C5C"/>
<path d="M1021.35 397.8C1021.35 398.867 1021.18 399.843 1020.83 400.73C1020.48 401.61 1019.99 402.367 1019.36 403C1018.73 403.633 1017.98 404.127 1017.09 404.48C1016.21 404.827 1015.23 405 1014.15 405H1008.71V390.6H1014.15C1015.23 390.6 1016.21 390.777 1017.09 391.13C1017.98 391.477 1018.73 391.967 1019.36 392.6C1019.99 393.233 1020.48 393.993 1020.83 394.88C1021.18 395.76 1021.35 396.733 1021.35 397.8ZM1018.96 397.8C1018.96 396.973 1018.85 396.23 1018.62 395.57C1018.4 394.91 1018.08 394.353 1017.66 393.9C1017.25 393.447 1016.74 393.1 1016.15 392.86C1015.56 392.613 1014.89 392.49 1014.15 392.49H1011.06V403.11H1014.15C1014.89 403.11 1015.56 402.99 1016.15 402.75C1016.74 402.51 1017.25 402.163 1017.66 401.71C1018.08 401.25 1018.4 400.693 1018.62 400.04C1018.85 399.38 1018.96 398.633 1018.96 397.8ZM1028.72 400.54C1027.95 400.567 1027.31 400.63 1026.78 400.73C1026.25 400.823 1025.83 400.947 1025.5 401.1C1025.17 401.247 1024.94 401.423 1024.79 401.63C1024.65 401.837 1024.58 402.063 1024.58 402.31C1024.58 402.55 1024.62 402.757 1024.69 402.93C1024.77 403.097 1024.88 403.237 1025.01 403.35C1025.15 403.457 1025.31 403.537 1025.49 403.59C1025.68 403.637 1025.88 403.66 1026.1 403.66C1026.66 403.66 1027.14 403.557 1027.54 403.35C1027.95 403.137 1028.34 402.83 1028.72 402.43V400.54ZM1023.02 396.22C1024.17 395.147 1025.55 394.61 1027.14 394.61C1027.73 394.61 1028.25 394.707 1028.7 394.9C1029.16 395.087 1029.54 395.353 1029.85 395.7C1030.16 396.047 1030.4 396.46 1030.56 396.94C1030.73 397.413 1030.81 397.94 1030.81 398.52V405H1029.85C1029.64 405 1029.49 404.97 1029.38 404.91C1029.27 404.843 1029.18 404.713 1029.11 404.52L1028.9 403.69C1028.64 403.923 1028.38 404.133 1028.13 404.32C1027.88 404.5 1027.61 404.653 1027.34 404.78C1027.07 404.907 1026.78 405 1026.47 405.06C1026.16 405.127 1025.82 405.16 1025.45 405.16C1025.04 405.16 1024.65 405.103 1024.29 404.99C1023.94 404.877 1023.63 404.707 1023.37 404.48C1023.11 404.247 1022.9 403.96 1022.75 403.62C1022.6 403.28 1022.53 402.88 1022.53 402.42C1022.53 402.027 1022.63 401.643 1022.84 401.27C1023.05 400.897 1023.4 400.563 1023.88 400.27C1024.37 399.97 1025 399.723 1025.79 399.53C1026.58 399.337 1027.56 399.227 1028.72 399.2V398.52C1028.72 397.787 1028.56 397.24 1028.25 396.88C1027.94 396.52 1027.48 396.34 1026.87 396.34C1026.46 396.34 1026.11 396.393 1025.83 396.5C1025.55 396.6 1025.31 396.71 1025.1 396.83C1024.89 396.95 1024.71 397.063 1024.55 397.17C1024.39 397.27 1024.22 397.32 1024.04 397.32C1023.89 397.32 1023.77 397.283 1023.66 397.21C1023.56 397.13 1023.48 397.033 1023.41 396.92L1023.02 396.22ZM1036.46 405.16C1035.62 405.16 1034.96 404.923 1034.5 404.45C1034.05 403.97 1033.82 403.297 1033.82 402.43V396.49H1032.7C1032.58 396.49 1032.48 396.453 1032.39 396.38C1032.31 396.3 1032.26 396.183 1032.26 396.03V395.16L1033.91 394.92L1034.38 391.97C1034.42 391.857 1034.47 391.767 1034.55 391.7C1034.63 391.627 1034.74 391.59 1034.87 391.59H1035.97V394.94H1038.8V396.49H1035.97V402.28C1035.97 402.647 1036.06 402.927 1036.24 403.12C1036.42 403.313 1036.66 403.41 1036.96 403.41C1037.13 403.41 1037.27 403.39 1037.39 403.35C1037.51 403.303 1037.62 403.257 1037.7 403.21C1037.79 403.157 1037.86 403.11 1037.92 403.07C1037.99 403.023 1038.05 403 1038.11 403C1038.23 403 1038.33 403.067 1038.4 403.2L1039.04 404.25C1038.71 404.543 1038.32 404.77 1037.86 404.93C1037.41 405.083 1036.94 405.16 1036.46 405.16ZM1047.11 398.75C1047.11 398.39 1047.06 398.057 1046.95 397.75C1046.85 397.437 1046.7 397.167 1046.5 396.94C1046.3 396.707 1046.05 396.527 1045.75 396.4C1045.46 396.267 1045.12 396.2 1044.73 396.2C1043.95 396.2 1043.34 396.423 1042.89 396.87C1042.44 397.317 1042.16 397.943 1042.04 398.75H1047.11ZM1041.98 400.07C1042.01 400.65 1042.1 401.153 1042.25 401.58C1042.4 402 1042.61 402.35 1042.86 402.63C1043.12 402.91 1043.43 403.12 1043.78 403.26C1044.14 403.393 1044.54 403.46 1044.98 403.46C1045.4 403.46 1045.76 403.413 1046.07 403.32C1046.38 403.22 1046.64 403.113 1046.87 403C1047.1 402.88 1047.29 402.773 1047.45 402.68C1047.61 402.58 1047.76 402.53 1047.89 402.53C1048.06 402.53 1048.2 402.597 1048.29 402.73L1048.9 403.52C1048.65 403.82 1048.36 404.073 1048.04 404.28C1047.72 404.487 1047.38 404.657 1047.02 404.79C1046.66 404.917 1046.29 405.007 1045.91 405.06C1045.53 405.12 1045.16 405.15 1044.8 405.15C1044.09 405.15 1043.44 405.033 1042.83 404.8C1042.23 404.56 1041.71 404.21 1041.26 403.75C1040.82 403.29 1040.47 402.72 1040.22 402.04C1039.97 401.36 1039.85 400.577 1039.85 399.69C1039.85 398.983 1039.96 398.323 1040.18 397.71C1040.41 397.097 1040.73 396.563 1041.14 396.11C1041.56 395.657 1042.07 395.3 1042.66 395.04C1043.26 394.773 1043.94 394.64 1044.69 394.64C1045.32 394.64 1045.9 394.743 1046.43 394.95C1046.96 395.15 1047.42 395.447 1047.81 395.84C1048.2 396.233 1048.5 396.717 1048.71 397.29C1048.93 397.857 1049.04 398.503 1049.04 399.23C1049.04 399.563 1049 399.787 1048.93 399.9C1048.86 400.013 1048.72 400.07 1048.53 400.07H1041.98Z" fill="#004C5C"/>
<path d="M32.95 14.94C32.95 15.7467 32.85 16.4733 32.65 17.12C32.4567 17.76 32.1633 18.3067 31.77 18.76C31.3833 19.2067 30.9 19.5533 30.32 19.8C29.7467 20.04 29.08 20.16 28.32 20.16C27.9733 20.16 27.63 20.1367 27.29 20.09C26.95 20.05 26.5967 19.9833 26.23 19.89L26.35 18.49C26.37 18.3567 26.42 18.25 26.5 18.17C26.5867 18.09 26.71 18.05 26.87 18.05C26.99 18.05 27.1433 18.0767 27.33 18.13C27.5233 18.1767 27.7733 18.2 28.08 18.2C28.4867 18.2 28.8467 18.14 29.16 18.02C29.48 17.9 29.7467 17.7133 29.96 17.46C30.18 17.2 30.3433 16.87 30.45 16.47C30.5633 16.0633 30.62 15.5733 30.62 15V5.6H32.95V14.94ZM40.9045 15.54C40.1379 15.5667 39.4912 15.63 38.9645 15.73C38.4379 15.8233 38.0112 15.9467 37.6845 16.1C37.3579 16.2467 37.1212 16.4233 36.9745 16.63C36.8345 16.8367 36.7645 17.0633 36.7645 17.31C36.7645 17.55 36.8012 17.7567 36.8745 17.93C36.9545 18.0967 37.0612 18.2367 37.1945 18.35C37.3345 18.4567 37.4945 18.5367 37.6745 18.59C37.8612 18.6367 38.0645 18.66 38.2845 18.66C38.8445 18.66 39.3245 18.5567 39.7245 18.35C40.1312 18.1367 40.5245 17.83 40.9045 17.43V15.54ZM35.2045 11.22C36.3579 10.1467 37.7312 9.61 39.3245 9.61C39.9112 9.61 40.4312 9.70667 40.8845 9.9C41.3445 10.0867 41.7279 10.3533 42.0345 10.7C42.3479 11.0467 42.5845 11.46 42.7445 11.94C42.9112 12.4133 42.9945 12.94 42.9945 13.52V20H42.0345C41.8279 20 41.6712 19.97 41.5645 19.91C41.4579 19.8433 41.3679 19.7133 41.2945 19.52L41.0845 18.69C40.8245 18.9233 40.5679 19.1333 40.3145 19.32C40.0612 19.5 39.7979 19.6533 39.5245 19.78C39.2579 19.9067 38.9679 20 38.6545 20.06C38.3479 20.1267 38.0079 20.16 37.6345 20.16C37.2212 20.16 36.8345 20.1033 36.4745 19.99C36.1212 19.8767 35.8145 19.7067 35.5545 19.48C35.2945 19.2467 35.0879 18.96 34.9345 18.62C34.7879 18.28 34.7145 17.88 34.7145 17.42C34.7145 17.0267 34.8179 16.6433 35.0245 16.27C35.2379 15.8967 35.5845 15.5633 36.0645 15.27C36.5512 14.97 37.1879 14.7233 37.9745 14.53C38.7679 14.3367 39.7445 14.2267 40.9045 14.2V13.52C40.9045 12.7867 40.7479 12.24 40.4345 11.88C40.1212 11.52 39.6612 11.34 39.0545 11.34C38.6412 11.34 38.2945 11.3933 38.0145 11.5C37.7345 11.6 37.4912 11.71 37.2845 11.83C37.0779 11.95 36.8945 12.0633 36.7345 12.17C36.5745 12.27 36.4045 12.32 36.2245 12.32C36.0779 12.32 35.9512 12.2833 35.8445 12.21C35.7445 12.13 35.6612 12.0333 35.5945 11.92L35.2045 11.22ZM47.5431 11.69C47.8631 11.0433 48.2498 10.5367 48.7031 10.17C49.1565 9.79667 49.6998 9.61 50.3331 9.61C50.5531 9.61 50.7598 9.63667 50.9531 9.69C51.1465 9.73667 51.3198 9.81 51.4731 9.91L51.3231 11.53C51.2965 11.6433 51.2531 11.7233 51.1931 11.77C51.1398 11.81 51.0665 11.83 50.9731 11.83C50.8731 11.83 50.7298 11.8133 50.5431 11.78C50.3565 11.74 50.1598 11.72 49.9531 11.72C49.6531 11.72 49.3865 11.7633 49.1531 11.85C48.9265 11.9367 48.7198 12.0633 48.5331 12.23C48.3531 12.3967 48.1931 12.6 48.0531 12.84C47.9131 13.08 47.7831 13.3533 47.6631 13.66V20H45.5131V9.8H46.7631C46.9898 9.8 47.1465 9.84333 47.2331 9.93C47.3198 10.01 47.3798 10.1533 47.4131 10.36L47.5431 11.69ZM58.9273 11.65C58.874 11.7433 58.814 11.81 58.7473 11.85C58.6807 11.89 58.5973 11.91 58.4973 11.91C58.384 11.91 58.2607 11.8767 58.1273 11.81C57.994 11.7367 57.8373 11.6567 57.6573 11.57C57.4773 11.4833 57.264 11.4067 57.0173 11.34C56.7773 11.2667 56.494 11.23 56.1673 11.23C55.9007 11.23 55.6573 11.2633 55.4373 11.33C55.224 11.39 55.0407 11.48 54.8873 11.6C54.7407 11.7133 54.6273 11.85 54.5473 12.01C54.4673 12.1633 54.4273 12.33 54.4273 12.51C54.4273 12.75 54.5007 12.95 54.6473 13.11C54.794 13.27 54.9873 13.41 55.2273 13.53C55.4673 13.6433 55.7407 13.7467 56.0473 13.84C56.354 13.9333 56.6673 14.0333 56.9873 14.14C57.3073 14.2467 57.6207 14.37 57.9273 14.51C58.234 14.65 58.5073 14.8233 58.7473 15.03C58.9873 15.23 59.1807 15.4767 59.3273 15.77C59.474 16.0567 59.5473 16.4067 59.5473 16.82C59.5473 17.3 59.4607 17.7433 59.2873 18.15C59.114 18.5567 58.8607 18.91 58.5273 19.21C58.194 19.51 57.7773 19.7433 57.2773 19.91C56.784 20.0767 56.2173 20.16 55.5773 20.16C55.224 20.16 54.8807 20.1267 54.5473 20.06C54.2207 20 53.9073 19.9167 53.6073 19.81C53.314 19.6967 53.0373 19.5633 52.7773 19.41C52.524 19.2567 52.2973 19.09 52.0973 18.91L52.5973 18.09C52.6573 17.99 52.7307 17.9133 52.8173 17.86C52.9107 17.8 53.024 17.77 53.1573 17.77C53.2973 17.77 53.434 17.8167 53.5673 17.91C53.7073 17.9967 53.8673 18.0933 54.0473 18.2C54.234 18.3067 54.4573 18.4067 54.7173 18.5C54.9773 18.5867 55.3007 18.63 55.6873 18.63C56.0073 18.63 56.284 18.5933 56.5173 18.52C56.7507 18.44 56.944 18.3333 57.0973 18.2C57.2507 18.0667 57.364 17.9167 57.4373 17.75C57.5107 17.5767 57.5473 17.3933 57.5473 17.2C57.5473 16.94 57.474 16.7267 57.3273 16.56C57.1807 16.3933 56.984 16.25 56.7373 16.13C56.4973 16.01 56.2207 15.9033 55.9073 15.81C55.6007 15.7167 55.2873 15.6167 54.9673 15.51C54.6473 15.4033 54.3307 15.28 54.0173 15.14C53.7107 15 53.434 14.8233 53.1873 14.61C52.9473 14.39 52.754 14.1267 52.6073 13.82C52.4607 13.5067 52.3873 13.1267 52.3873 12.68C52.3873 12.2733 52.4673 11.8867 52.6273 11.52C52.794 11.1533 53.034 10.83 53.3473 10.55C53.6673 10.27 54.0573 10.05 54.5173 9.89C54.984 9.72333 55.5207 9.64 56.1273 9.64C56.814 9.64 57.4373 9.75 57.9973 9.97C58.5573 10.19 59.0273 10.49 59.4073 10.87L58.9273 11.65Z" fill="#004C5C"/>
</svg>
