<svg width="171" height="51" viewBox="0 0 171 51" fill="none" xmlns="http://www.w3.org/2000/svg">
<path d="M25 0.5L30.6129 17.7746H48.7764L34.0818 28.4508L39.6946 45.7254L25 35.0491L10.3054 45.7254L15.9182 28.4508L1.22359 17.7746H19.3871L25 0.5Z" fill="#F1C550"/>
<path d="M88 0.5L93.6129 17.7746H111.776L97.0818 28.4508L102.695 45.7254L88 35.0491L73.3054 45.7254L78.9182 28.4508L64.2236 17.7746H82.3871L88 0.5Z" fill="#F1C550"/>
<path d="M146 0.5L151.613 17.7746H169.776L155.082 28.4508L160.695 45.7254L146 35.0491L131.305 45.7254L136.918 28.4508L122.224 17.7746H140.387L146 0.5Z" fill="#F1C550"/>
</svg>
